<?xml version="1.0" standalone="no"?>
<!DOCTYPE svg PUBLIC "-//W3C//DTD SVG 1.1//EN"
  "http://www.w3.org/Graphics/SVG/1.1/DTD/svg11.dtd">
<!-- Created with matplotlib (http://matplotlib.sourceforge.net/) -->
<svg width="576pt" height="432pt" viewBox="0 0 576 432"
   xmlns="http://www.w3.org/2000/svg"
   xmlns:xlink="http://www.w3.org/1999/xlink"
   version="1.1"
   id="svg1">
<g id="figure1">
<g id="patch1">
<path style="fill: #ffffff; stroke: #ffffff; stroke-width: 1.000000; stroke-linejoin: round; stroke-linecap: square;  opacity: 1.000000"  d="M0.000000 432.000000L576.000000 432.000000L576.000000 0.000000
L0.000000 0.000000L0.000000 432.000000"/>
</g>
<g id="axes1">
<g id="patch2">
<path style="fill: #ffffff; opacity: 1.000000"  d="M72.000000 388.800000L518.400000 388.800000L518.400000 43.200000
L72.000000 43.200000L72.000000 388.800000"/>
</g>
<g id="line2d1">
<defs>
  <clipPath id="p50431ccdcb28178602d99d9270004dde">
<rect x="72.000000" y="43.200000" width="446.400000" height="345.600000"/>
  </clipPath>
</defs><path style="fill: none; stroke: #0000ff; stroke-width: 1.000000; stroke-linejoin: round; stroke-linecap: square;  opacity: 1.000000" clip-path="url(#p50431ccdcb28178602d99d9270004dde)" d="M72.000000 250.532571L72.099200 346.038910L72.595200 347.143797
L72.694400 345.372304L72.793600 346.732936L73.091200 345.474394
L73.190400 347.100821L73.388800 345.757674L73.686400 347.716773
L73.785600 346.161836L74.281600 342.118434L74.777600 346.929775
L74.976000 344.971512L75.075200 346.591723L75.769600 343.297590
L76.265600 345.800924L76.761600 344.616275L76.860800 346.068114
L77.059200 344.613544L77.257600 346.869016L77.555200 341.790373
L77.852800 348.642228L78.150400 350.622341L78.249600 349.475413
L78.646400 351.027292L78.944000 351.286657L78.944000 351.286657
L79.340800 353.175388L81.920000 359.204476L82.118400 361.550047
L82.217600 359.280108L84.896000 369.230463L85.193600 369.334005
L85.193600 369.334005L85.590400 371.165895L85.987200 369.797392
L86.086400 372.129298L86.284800 371.972215L88.665600 378.642049
L89.459200 373.830778L89.558400 377.599718L90.451200 376.581447
L90.848000 375.014978L90.947200 376.268424L92.236800 372.267696
L92.732800 369.368630L93.526400 355.805434L93.923200 361.556065
L94.220800 355.787033L94.320000 358.177856L94.617600 364.952789
L94.816000 363.846627L95.609600 361.779891L96.105600 349.138918
L96.204800 343.019470L96.403200 346.769139L96.601600 358.814373
L96.998400 357.644767L97.196800 357.534733L97.196800 357.534733
L98.188800 354.192447L98.387200 355.255674L99.081600 352.688375
L100.172800 353.090068L100.272000 350.731035L101.363200 350.615114
L101.561600 349.209856L103.446400 346.368292L103.644800 347.521990
L104.140800 346.392014L104.736000 347.818003L104.835200 346.555817
L105.430400 345.355336L105.529600 346.681751L105.827200 345.360990
L106.521600 344.042306L106.819200 340.853597L107.017600 341.735385
L107.017600 341.735385L107.315200 343.093114L107.712000 329.332123
L107.910400 306.554924L108.009600 319.910743L108.505600 343.707251
L108.902400 328.085061L109.001600 335.669900L109.398400 346.990707
L109.795200 348.432366L109.894400 347.162241L110.291200 349.765124
L110.489600 349.657750L110.985600 352.227753L111.084800 349.678490
L111.283200 350.691117L111.878400 352.844141L112.275200 351.413774
L112.672000 352.804093L113.267200 351.632377L113.961600 348.560006
L114.656000 285.336119L114.854400 294.874452L115.152000 333.836038
L115.350400 350.975794L115.846400 352.216071L116.144000 356.640688
L116.739200 358.862086L117.036800 357.841228L117.532800 359.443082
L117.632000 358.265426L118.128000 359.695405L118.326400 358.457265
L118.524800 359.514090L118.624000 357.380636L119.516800 355.622131
L119.814400 355.054761L119.814400 355.054761L119.913600 356.270667
L121.302400 351.841752L121.500800 352.928487L122.492800 348.987695
L124.080000 343.704634L124.576000 342.587810L125.072000 340.449538
L127.452800 332.893978L128.147200 331.306894L128.345600 332.860805
L128.841600 330.173190L129.734400 327.672177L130.131200 321.662980
L130.230400 316.061936L130.329600 319.536956L130.627200 327.478502
L131.024000 325.748648L131.222400 315.705817L131.321600 319.280721
L131.619200 326.794454L132.214400 324.182719L132.313600 325.330199
L132.710400 327.798949L132.908800 328.050979L133.008000 326.587297
L133.404800 328.696277L133.801600 326.101592L134.099200 327.999329
L134.595200 326.338993L135.190400 327.969152L135.587200 326.283171
L135.884800 327.495701L136.083200 326.480362L136.480000 327.866368
L137.571200 326.186986L137.769600 329.657260L137.868800 328.577026
L140.646400 332.818229L141.043200 334.403477L141.241600 335.124478
L141.241600 335.124478L141.539200 334.115370L142.035200 337.048441
L142.729600 338.169073L143.225600 341.429561L143.424000 339.687429
L143.721600 342.930925L144.019200 342.961242L144.019200 342.961242
L144.416000 344.036989L144.812800 342.880492L145.011200 339.079779
L145.110400 330.667615L145.209600 335.952461L145.705600 350.260401
L146.201600 351.458820L148.582400 364.089061L150.169600 368.965271
L150.268800 367.598464L151.161600 365.329781L151.260800 363.573819
L151.756800 362.465739L152.352000 358.814373L153.046400 357.075725
L153.344000 353.920975L153.542400 354.308013L153.939200 353.013165
L154.236800 350.741935L154.435200 351.880041L154.832000 348.576425
L156.022400 342.308877L157.312000 337.889862L157.411200 336.802321
L157.609600 338.321251L157.808000 336.155806L158.601600 332.678482
L158.800000 333.682959L159.792000 331.003682L160.684800 332.343059
L160.784000 330.041309L161.875200 330.311493L162.073600 329.111003
L162.668800 330.716120L162.768000 328.739214L162.867200 329.995687
L163.958400 330.603587L164.752000 328.909201L165.148800 331.866133
L165.347200 330.121730L165.446400 332.558307L165.644800 331.008025
L166.537600 334.729925L166.636800 333.478913L167.926400 338.794779
L168.124800 336.849799L168.918400 345.127574L169.315200 341.606835
L169.513600 329.937762L169.612800 341.384883L170.108800 356.789540
L170.704000 362.284425L171.299200 360.980134L172.588800 344.229245
L173.283200 331.235077L173.580800 329.941895L173.779200 328.582197
L173.779200 328.582197L175.763200 306.603112L176.160000 305.495735
L177.052800 296.106092L177.648000 289.865880L177.747200 283.263432
L177.945600 289.494455L178.838400 281.773559L179.036800 271.971760
L179.136000 277.421004L179.334400 276.739494L179.433600 278.682956
L179.532800 272.639201L179.731200 273.548059L180.028800 273.075165
L180.028800 273.075165L180.326400 260.148439L180.425600 266.099167
L180.524800 269.373281L180.822400 265.114085L180.921600 269.001761
L181.219200 266.236178L181.516800 250.998980L181.715200 258.554975
L181.913600 262.554739L182.608000 254.591110L182.806400 235.010646
L183.004800 248.557421L183.203200 254.249833L183.500800 254.453629
L183.600000 251.534003L183.897600 245.176401L184.096000 225.004947
L184.195200 234.816610L184.492800 242.720438L184.592000 231.285709
L184.790400 241.463870L185.385600 209.578318L185.484800 223.188070
L185.980800 240.806363L186.278400 237.697330L186.675200 211.455985
L186.774400 221.969560L187.072000 232.008826L187.270400 230.651026
L187.568000 220.681450L187.865600 182.741020L188.064000 197.690258
L188.262400 208.301574L188.460800 205.911401L188.560000 204.646767
L188.956800 164.636046L189.155200 129.971169L189.254400 141.554430
L189.948800 203.604080L190.246400 194.770906L190.444800 169.823148
L190.544000 184.970846L191.139200 219.371546L191.337600 218.062785
L191.734400 190.213669L191.833600 203.916163L192.230400 220.453790
L192.329600 219.418669L192.627200 214.134135L193.024000 182.913219
L193.123200 195.974197L193.420800 215.326267L193.817600 209.367318
L194.214400 189.752283L194.313600 193.799838L194.710400 214.522316
L195.008000 215.795259L195.404800 202.020442L195.702400 204.962487
L195.702400 204.962487L196.000000 214.505639L196.099200 213.249535
L196.496000 211.497183L196.694400 204.106667L196.892800 204.158158
L196.892800 204.158158L197.190400 212.534210L197.785600 210.261300
L198.083200 196.947408L198.182400 204.579817L198.380800 209.710289
L198.678400 208.636463L198.777600 210.542878L198.876800 208.863688
L199.075200 207.173921L199.273600 198.251277L199.769600 208.587105
L200.364800 207.107785L200.563200 200.488890L200.761600 204.145582
L200.860800 206.971997L201.158400 205.954083L201.356800 207.122413
L201.852800 201.360240L202.051200 205.558643L203.043200 202.590856
L203.241600 203.001941L203.241600 203.001941L203.440000 204.384777
L203.539200 202.578288L203.737600 202.714125L204.332800 201.652182
L204.828800 203.822380L205.126400 200.003589L205.225600 201.609318
L205.721600 197.905625L205.820800 200.978393L206.416000 197.701473
L206.515200 200.257486L206.713600 198.843755L207.110400 196.234746
L207.209600 197.743613L207.308800 199.638082L207.408000 197.969101
L208.102400 196.738711L208.400000 198.355385L208.499200 197.053569
L208.896000 191.077551L208.995200 193.456365L209.094400 195.561882
L209.888000 190.572634L210.185600 170.878065L210.284800 182.799040
L210.681600 193.794481L210.979200 195.195527L211.376000 189.419236
L211.574400 190.486134L211.772800 192.363200L212.268800 187.958844
L212.665600 170.714266L212.963200 171.204978L213.558400 191.212489
L215.542400 194.098775L215.641600 192.216694L216.038400 193.243148
L216.435200 191.476740L216.732800 192.901020L217.129600 191.436053
L218.121600 190.431051L218.518400 192.632454L218.915200 191.110283
L219.312000 192.331257L219.510400 190.894106L219.907200 191.961428
L220.304000 190.575681L220.403200 191.671710L220.998400 190.477903
L221.395200 191.584670L221.990400 189.493528L222.089600 192.290260
L222.188800 190.917979L222.784000 189.860114L223.081600 186.817061
L223.180800 188.795263L223.280000 182.185403L223.478400 185.751438
L223.875200 191.303388L224.172800 191.359378L224.172800 191.359378
L224.768000 188.993508L224.867200 190.572541L225.363200 187.762994
L225.462400 190.421943L226.057600 189.305830L226.454400 190.917527
L226.752000 191.746307L226.752000 191.746307L227.644800 188.260115
L227.744000 190.702405L228.537600 188.318511L228.835200 189.882923
L229.132800 191.828409L229.827200 187.529138L230.323200 190.578648
L231.017600 186.976591L231.414400 184.636022L231.612800 185.005290
L231.612800 185.005290L232.009600 176.429374L232.307200 155.489341
L232.505600 159.500900L232.704000 157.903594L233.596800 186.730697
L234.192000 188.991572L234.588800 182.329696L234.688000 186.597802
L235.382400 191.003698L235.878400 189.524996L235.977600 191.879653
L236.076800 190.655690L236.572800 188.187561L236.969600 192.423452
L237.267200 191.081818L238.060800 192.172340L238.755200 191.102555
L239.152000 192.541252L239.350400 190.774905L239.548800 192.530554
L239.648000 191.281610L240.144000 192.592849L240.243200 190.802735
L240.540800 192.218862L240.640000 191.075217L240.937600 192.454422
L241.036800 191.328856L242.028800 192.544871L242.128000 191.303673
L242.624000 189.681043L242.822400 190.874740L243.814400 192.079323
L244.905600 190.729735L245.004800 189.667222L245.203200 191.883039
L245.500800 191.517698L245.897600 190.411253L246.096000 192.078705
L246.592000 190.711663L246.889600 192.459972L247.584000 191.310553
L248.179200 193.065973L248.576000 191.300670L249.270400 192.527570
L249.568000 191.313291L249.766400 189.062193L249.865600 190.462519
L249.964800 191.656631L250.659200 190.350553L250.758400 192.332613
L251.254400 191.177688L252.345600 191.478384L252.643200 192.509022
L252.742400 190.732665L252.940800 192.210045L253.139200 190.028477
L253.337600 191.507754L254.428800 190.968808L254.627200 190.945308
L254.627200 190.945308L255.024000 192.970491L255.123200 190.587559
L255.520000 191.799478L255.619200 190.208535L255.817600 191.220706
L256.016000 190.166195L256.115200 191.256835L256.710400 192.509571
L256.809600 190.634119L257.702400 189.619432L257.801600 190.955686
L258.099200 189.947508L258.198400 191.057135L258.396800 188.774502
L258.496000 190.699898L259.289600 188.742377L259.686400 191.598050
L259.785600 190.516411L260.083200 189.073338L260.480000 190.584067
L260.976000 188.152069L261.075200 190.046681L261.472000 188.861112
L262.265600 192.095590L262.364800 189.999420L263.059200 188.996931
L263.852800 190.170559L263.952000 191.186913L264.348800 188.371826
L264.448000 190.182401L264.646400 188.893141L264.844800 190.540068
L265.340800 188.734083L265.440000 189.866903L265.936000 188.418943
L266.134400 190.628167L266.332800 189.153961L266.828800 187.356635
L267.027200 183.319217L267.225600 185.801648L267.622400 189.412815
L267.920000 187.608021L268.019200 189.516833L268.118400 188.509323
L268.812800 187.439463L268.912000 189.058815L269.011200 188.010769
L269.606400 185.192682L269.705600 183.063019L269.904000 184.858990
L270.003200 186.444256L270.201600 186.237793L270.697600 180.543410
L271.094400 146.963980L271.193600 164.283357L271.689600 185.301497
L271.888000 184.210709L271.987200 186.122308L272.284800 183.656368
L272.780800 188.547948L273.177600 182.933802L273.475200 187.844584
L273.574400 186.626059L273.772800 188.186986L274.169600 157.519939
L274.268800 185.056286L274.467200 183.955741L274.665600 180.833202
L274.963200 169.093672L275.260800 177.145049L275.260800 177.145049
L275.657600 185.366514L275.756800 183.098465L275.955200 184.910199
L276.153600 185.623940L276.153600 185.623940L276.352000 180.945726
L276.550400 188.333875L276.649600 186.340529L277.046400 182.062833
L277.443200 187.912779L277.542400 186.312774L277.740800 187.656192
L278.336000 186.397843L278.732800 188.726813L279.030400 189.319218
L279.030400 189.319218L279.228800 187.827344L279.724800 190.246903
L280.121600 186.647712L280.220800 188.289272L280.915200 190.022323
L281.014400 188.506967L281.113600 189.592607L281.411200 188.086113
L281.609600 189.428206L282.105600 187.500979L282.304000 189.069721
L282.304000 189.069721L282.601600 188.949425L282.601600 188.949425
L283.494400 191.206482L283.593600 189.393173L284.684800 190.066867
L285.081600 191.178604L285.180800 189.436673L285.577600 190.678826
L286.569600 189.411187L286.867200 191.424203L287.164800 189.832815
L287.760000 191.146598L288.256000 184.243187L288.454400 190.269475
L288.553600 189.025233L289.049600 182.877304L289.248000 165.778172
L289.446400 177.441627L289.942400 190.420859L290.438400 187.480889
L290.537600 182.373844L290.736000 185.913651L291.132800 191.148640
L291.430400 191.359956L291.430400 191.359956L291.827200 188.639402
L291.926400 191.161372L292.224000 189.789430L292.422400 191.858311
L293.017600 188.486773L293.216000 190.599597L293.712000 191.611603
L294.208000 190.072791L294.604800 191.235875L294.704000 190.235220
L295.001600 191.387374L295.398400 186.053887L295.497600 190.178657
L295.894400 191.301099L298.076800 191.596618L299.068800 192.812685
L299.465600 191.682660L300.358400 192.948763L300.755200 190.892433
L301.152000 193.792782L301.251200 192.250803L302.243200 193.468090
L302.342400 191.693050L302.838400 193.289501L303.036800 192.168591
L303.334400 193.376031L303.532800 191.590025L303.632000 192.871058
L304.624000 191.171295L304.723200 193.560292L304.822400 192.400987
L305.913600 192.522379L306.211200 191.151185L306.508800 178.786757
L306.608000 185.670957L307.004800 192.888046L307.203200 191.503497
L307.600000 193.314096L307.798400 190.645763L307.897600 192.284195
L308.592000 190.423467L309.088000 193.533870L309.187200 191.416278
L309.782400 192.860709L309.980800 190.858346L310.278400 190.964865
L310.476800 192.450271L310.774400 191.405375L310.972800 192.625989
L311.171200 190.933281L311.369600 192.026849L312.361600 190.728992
L312.560000 190.417049L312.659200 191.452638L313.750400 192.283508
L313.948800 191.138338L314.643200 192.415679L314.940800 188.917220
L315.040000 190.671199L315.734400 189.227570L316.230400 191.542259
L316.428800 190.055819L316.627200 189.953469L316.726400 191.128845
L317.024000 189.848839L317.321600 191.413570L317.718400 189.871359
L318.016000 191.175787L318.412800 187.397952L318.512000 189.705842
L319.206400 187.735937L319.504000 187.893929L319.504000 187.893929
L320.000000 181.498607L320.297600 150.814270L320.595200 160.837367
L320.595200 160.837367L321.091200 186.915981L321.388800 176.727853
L321.488000 183.620093L321.785600 190.269249L322.182400 188.419036
L322.579200 190.754585L322.678400 189.231856L322.976000 189.351838
L324.067200 190.943268L324.265600 189.666420L324.364800 191.463353
L324.464000 190.313180L324.960000 191.775957L325.158400 189.662704
L325.257600 191.248434L326.348800 190.808149L327.440000 189.353063
L328.531200 190.108721L329.225600 191.620932L329.523200 189.562668
L329.622400 191.578139L330.713600 191.984467L331.011200 193.315099
L331.110400 191.375050L331.606400 192.561237L331.705600 191.433735
L332.003200 192.443397L332.300800 192.551501L332.300800 192.551501
L332.598400 191.490958L332.995200 192.999391L333.193600 190.250438
L333.292800 192.323182L334.185600 193.472367L335.276800 193.179106
L335.574400 194.778241L335.872000 192.064774L336.268800 194.097264
L336.566400 192.346220L336.963200 195.207567L337.161600 195.232153
L337.161600 195.232153L337.756800 193.195406L338.054400 196.314022
L338.153600 194.861304L338.352000 196.432362L338.550400 194.125507
L339.344000 196.881647L339.840000 195.184940L340.137600 198.209444
L340.236800 196.371688L340.633600 197.609985L341.328000 196.507625
L341.427200 198.335054L342.518400 198.622237L343.113600 201.025718
L343.212800 199.531501L343.609600 201.000210L344.700800 201.851048
L345.097600 200.574061L345.196800 201.738426L345.692800 203.079937
L345.792000 201.627190L345.891200 202.923985L346.883200 204.254734
L347.280000 205.625202L347.478400 204.137325L347.676800 205.380227
L348.371200 207.414661L348.668800 207.448503L348.768000 205.432005
L348.867200 207.186944L348.966400 206.140326L349.264000 201.312841
L349.363200 204.109705L349.859200 208.735979L350.156800 210.292426
L350.355200 208.096040L350.454400 209.100978L350.851200 210.487573
L351.248000 208.903740L351.545600 211.949520L353.232000 215.053581
L354.224000 217.009690L354.323200 213.872406L354.422400 216.398567
L354.720000 218.057619L355.017600 215.848826L355.116800 217.763410
L355.414400 218.167073L355.414400 218.167073L355.910400 220.728298
L356.307200 189.318405L356.704000 222.925854L357.299200 216.131385
L357.696000 222.572500L359.481600 231.410235L360.672000 234.378055
L361.564800 238.300768L362.160000 239.439018L362.656000 241.700520
L362.755200 239.879543L362.854400 241.467117L364.441600 249.514735
L365.433600 252.143184L367.318400 262.062648L367.814400 263.359121
L368.310400 266.365189L369.203200 272.726261L369.401600 273.642286
L369.401600 273.642286L369.996800 276.182798L370.492800 279.364530
L370.889600 282.175816L375.452800 322.834867L377.337600 345.582686
L378.329600 360.197838L378.528000 360.839991L378.528000 360.839991
L379.123200 364.245397L379.420800 362.253319L379.619200 361.749507
L379.619200 361.749507L379.817600 362.353019L379.817600 362.353019
L380.115200 360.956713L380.512000 344.103549L380.710400 282.364902
L380.809600 335.265277L381.107200 352.561407L381.404800 350.745569
L381.702400 345.024334L381.801600 349.713102L382.000000 347.291799
L383.984000 335.383911L384.083200 337.707039L384.182400 335.788991
L385.769600 330.714691L386.662400 331.882716L386.761600 329.932254
L387.852800 330.315698L388.051200 328.976257L388.348800 330.259700
L388.547200 328.877717L388.745600 330.336735L389.638400 329.266615
L389.936000 331.276086L390.729600 332.469779L391.027200 333.712502
L391.820800 335.265277L393.011200 338.655756L393.606400 340.341869
L393.705600 338.674378L394.102400 340.375458L394.697600 345.445987
L396.681600 354.329482L396.880000 352.648617L397.276800 359.443082
L397.673600 360.482140L397.971200 360.880772L397.971200 360.880772
L398.566400 364.457931L398.963200 365.647871L399.161600 359.978670
L399.260800 366.730828L399.558400 366.464373L399.657600 364.499311
L399.756800 366.471941L400.352000 364.423509L400.649600 351.822634
L401.046400 364.952789L401.443200 361.519988L401.542400 358.219021
L401.840000 358.979167L401.840000 358.979167L402.038400 361.424078
L402.732800 355.833065L402.832000 357.705025L402.931200 352.736183
L403.228800 354.368182L404.022400 351.082607L404.518400 349.132174
L404.915200 347.865620L405.411200 344.775266L405.609600 343.341294
L406.601600 341.137323L406.700800 339.360067L407.296000 338.343661
L407.990400 334.996802L408.089600 336.043820L408.387200 334.400085
L409.081600 335.669900L409.180800 332.525649L409.577600 331.055855
L409.776000 332.573876L410.073600 328.972307L410.470400 327.679614
L410.569600 325.612008L410.668800 326.856397L410.768000 330.258302
L410.867200 328.530543L411.363200 329.623302L411.760000 326.905363
L411.859200 328.830578L412.057600 328.808353L412.355200 327.240359
L413.049600 326.232127L413.148800 328.125524L413.248000 326.807543
L414.240000 325.337977L414.438400 326.940065L414.438400 326.940065
L414.636800 325.581636L414.736000 326.762362L415.132800 324.692093
L415.430400 321.229199L415.728000 321.913499L415.728000 321.913499
L416.124800 327.114423L416.819200 324.808877L417.017600 326.506165
L417.116800 325.478470L417.414400 325.771317L417.414400 325.771317
L417.612800 327.837627L417.811200 326.541402L418.803200 330.241532
L418.902400 328.488022L419.100800 329.607021L419.398400 328.173673
L419.894400 330.744703L420.192000 329.142832L420.291200 330.189907
L420.688000 331.451254L420.787200 330.394342L420.886400 333.651818
L420.985600 331.890258L421.283200 333.134033L421.481600 332.091846
L421.580800 333.095699L422.076800 335.328939L422.969600 336.418785
L424.060800 339.253466L425.152000 342.434318L426.144000 345.108004
L426.342400 346.344596L426.739200 324.688858L427.136000 348.435630
L427.334400 347.168393L427.433600 349.128803L428.524800 352.980867
L428.723200 351.761568L428.822400 353.441647L429.814400 356.022837
L430.409600 357.820995L430.707200 358.075288L430.707200 358.075288
L431.500800 359.161377L431.798400 358.126511L431.897600 359.817139
L432.195200 358.766765L432.988800 360.608437L433.484800 357.805833
L433.584000 358.893954L434.576000 361.556065L434.675200 358.708722
L435.171200 357.699997L435.568000 356.027487L435.667200 357.604689
L436.857600 355.188494L437.056000 356.588118L437.552000 354.162586
L438.444800 352.908374L438.742400 353.912546L438.841600 352.892298
L440.230400 350.062323L440.428800 351.312766L441.024000 350.274620
L441.222400 348.622466L441.420800 350.514195L441.619200 349.362660
L442.115200 348.098875L442.512000 349.349033L442.611200 347.273243
L442.809600 347.986724L443.900800 348.854163L444.000000 347.553287
L444.297600 349.345628L444.396800 347.682085L444.992000 348.847508
L445.388800 346.088581L445.488000 348.940864L445.984000 346.981556
L446.678400 349.352439L446.876800 349.471987L446.876800 349.471987
L447.372800 348.263354L448.265600 351.230814L448.364800 350.150525
L449.158400 352.368432L450.249600 353.212058L451.539200 356.162766
L452.332800 357.252242L452.729600 359.075438L456.201600 368.213439
L456.499200 370.479850L456.598400 369.325357L456.796800 372.149015
L457.491200 370.903722L457.590400 372.922226L458.384000 373.937719
L458.780800 358.624575L458.880000 368.213439L459.177600 365.823384
L459.772800 377.384603L459.872000 376.149236L460.169600 377.171624
L460.566400 375.459205L460.665600 378.036533L461.459200 376.776373
L461.756800 378.114550L462.054400 376.340255L463.939200 371.942890
L467.907200 360.023445L468.105600 358.270588L469.196800 355.851506
L469.395200 357.257166L470.288000 353.232457L470.486400 354.588809
L470.982400 352.360592L471.280000 353.520105L471.379200 352.111221
L471.875200 351.089993L471.974400 352.157758L472.470400 349.122063
L472.569600 351.290385L472.668800 349.893987L473.164800 348.807623
L473.264000 350.079935L473.958400 347.202259L474.057600 348.514099
L474.454400 346.717869L475.347200 348.009107L475.644800 345.783614
L476.636800 328.774408L477.033600 347.428371L477.232000 345.870305
L477.232000 345.870305"/>
</g>
<g id="matplotlib.axis1">
<g id="xtick1">
<g id="line2d2">
<path style="fill: none; stroke: #000000; stroke-width: 0.500000; stroke-linejoin: round; stroke-linecap: butt; stroke-dasharray: 1.000000,3.000000; stroke-dashoffset: 0.000000; opacity: 1.000000" clip-path="url(#p50431ccdcb28178602d99d9270004dde)" d="M72.000000 388.800000L72.000000 43.200000"/>
</g>
<g id="line2d3">
<defs><path id="m30e32995789d870ad79a2e54c91cf9c6" d="M0.000000 0.000000L0.000000 -4.000000"/></defs>
<g ><use style="fill: none; stroke: #000000; stroke-width: 0.500000; stroke-linejoin: round; stroke-linecap: butt;  opacity: 1.000000" xlink:href="#m30e32995789d870ad79a2e54c91cf9c6" x="72.000000" y="388.800000"/>
</g></g>
<g id="line2d4">
<defs><path id="m9281cae24120827b11d5ea8a7ad3e96b" d="M0.000000 0.000000L0.000000 4.000000"/></defs>
<g ><use style="fill: none; stroke: #000000; stroke-width: 0.500000; stroke-linejoin: round; stroke-linecap: butt;  opacity: 1.000000" xlink:href="#m9281cae24120827b11d5ea8a7ad3e96b" x="72.000000" y="43.200000"/>
</g></g>
<g id="text1">
<defs>
<path id="c_7a2040fe3b94fcd41d0a72c84e93b115" d="M31.781250 -66.406250q-7.609375 0.000000 -11.453125 7.500000q-3.828125 7.484375 -3.828125 22.531250q0.000000 14.984375 3.828125 22.484375q3.843750 7.500000 11.453125 7.500000q7.671875 0.000000 11.500000 -7.500000q3.843750 -7.500000 3.843750 -22.484375q0.000000 -15.046875 -3.843750 -22.531250q-3.828125 -7.500000 -11.500000 -7.500000M31.781250 -74.218750q12.265625 0.000000 18.734375 9.703125q6.468750 9.687500 6.468750 28.140625q0.000000 18.406250 -6.468750 28.109375q-6.468750 9.687500 -18.734375 9.687500q-12.250000 0.000000 -18.718750 -9.687500q-6.468750 -9.703125 -6.468750 -28.109375q0.000000 -18.453125 6.468750 -28.140625q6.468750 -9.703125 18.718750 -9.703125"/>
</defs>
<g style="fill: #000000; opacity: 1.000000" transform="translate(68.976562,401.706250)scale(0.120000)">
<use xlink:href="#c_7a2040fe3b94fcd41d0a72c84e93b115"/>
</g>
</g>
</g>
<g id="xtick2">
<g id="line2d5">
<path style="fill: none; stroke: #000000; stroke-width: 0.500000; stroke-linejoin: round; stroke-linecap: butt; stroke-dasharray: 1.000000,3.000000; stroke-dashoffset: 0.000000; opacity: 1.000000" clip-path="url(#p50431ccdcb28178602d99d9270004dde)" d="M121.600000 388.800000L121.600000 43.200000"/>
</g>
<g id="line2d6">
<g ><use style="fill: none; stroke: #000000; stroke-width: 0.500000; stroke-linejoin: round; stroke-linecap: butt;  opacity: 1.000000" xlink:href="#m30e32995789d870ad79a2e54c91cf9c6" x="121.600000" y="388.800000"/>
</g></g>
<g id="line2d7">
<g ><use style="fill: none; stroke: #000000; stroke-width: 0.500000; stroke-linejoin: round; stroke-linecap: butt;  opacity: 1.000000" xlink:href="#m9281cae24120827b11d5ea8a7ad3e96b" x="121.600000" y="43.200000"/>
</g></g>
<g id="text2">
<defs>
<path id="c_1260a2df50f305f3db244e29828f968e" d="M10.796875 -72.906250l38.718750 0.000000l0.000000 8.312500l-29.687500 0.000000l0.000000 17.859375q2.140625 -0.734375 4.281250 -1.093750q2.156250 -0.359375 4.312500 -0.359375q12.203125 0.000000 19.328125 6.687500q7.140625 6.687500 7.140625 18.109375q0.000000 11.765625 -7.328125 18.296875q-7.328125 6.515625 -20.656250 6.515625q-4.593750 0.000000 -9.359375 -0.781250q-4.750000 -0.781250 -9.828125 -2.343750l0.000000 -9.921875q4.390625 2.390625 9.078125 3.562500q4.687500 1.171875 9.906250 1.171875q8.453125 0.000000 13.375000 -4.437500q4.937500 -4.437500 4.937500 -12.062500q0.000000 -7.609375 -4.937500 -12.046875q-4.921875 -4.453125 -13.375000 -4.453125q-3.953125 0.000000 -7.890625 0.875000q-3.921875 0.875000 -8.015625 2.734375z"/>
</defs>
<g style="fill: #000000; opacity: 1.000000" transform="translate(110.998437,401.706250)scale(0.120000)">
<use xlink:href="#c_1260a2df50f305f3db244e29828f968e"/>
<use xlink:href="#c_7a2040fe3b94fcd41d0a72c84e93b115" x="63.623047"/>
<use xlink:href="#c_7a2040fe3b94fcd41d0a72c84e93b115" x="127.246094"/>
</g>
</g>
</g>
<g id="xtick3">
<g id="line2d8">
<path style="fill: none; stroke: #000000; stroke-width: 0.500000; stroke-linejoin: round; stroke-linecap: butt; stroke-dasharray: 1.000000,3.000000; stroke-dashoffset: 0.000000; opacity: 1.000000" clip-path="url(#p50431ccdcb28178602d99d9270004dde)" d="M171.200000 388.800000L171.200000 43.200000"/>
</g>
<g id="line2d9">
<g ><use style="fill: none; stroke: #000000; stroke-width: 0.500000; stroke-linejoin: round; stroke-linecap: butt;  opacity: 1.000000" xlink:href="#m30e32995789d870ad79a2e54c91cf9c6" x="171.200000" y="388.800000"/>
</g></g>
<g id="line2d10">
<g ><use style="fill: none; stroke: #000000; stroke-width: 0.500000; stroke-linejoin: round; stroke-linecap: butt;  opacity: 1.000000" xlink:href="#m9281cae24120827b11d5ea8a7ad3e96b" x="171.200000" y="43.200000"/>
</g></g>
<g id="text3">
<defs>
<path id="c_42baa63129a918535c52adb20d687ea7" d="M12.406250 -8.296875l16.109375 0.000000l0.000000 -55.625000l-17.531250 3.515625l0.000000 -8.984375l17.437500 -3.515625l9.859375 0.000000l0.000000 64.609375l16.109375 0.000000l0.000000 8.296875l-41.984375 0.000000z"/>
</defs>
<g style="fill: #000000; opacity: 1.000000" transform="translate(156.973437,401.706250)scale(0.120000)">
<use xlink:href="#c_42baa63129a918535c52adb20d687ea7"/>
<use xlink:href="#c_7a2040fe3b94fcd41d0a72c84e93b115" x="63.623047"/>
<use xlink:href="#c_7a2040fe3b94fcd41d0a72c84e93b115" x="127.246094"/>
<use xlink:href="#c_7a2040fe3b94fcd41d0a72c84e93b115" x="190.869141"/>
</g>
</g>
</g>
<g id="xtick4">
<g id="line2d11">
<path style="fill: none; stroke: #000000; stroke-width: 0.500000; stroke-linejoin: round; stroke-linecap: butt; stroke-dasharray: 1.000000,3.000000; stroke-dashoffset: 0.000000; opacity: 1.000000" clip-path="url(#p50431ccdcb28178602d99d9270004dde)" d="M220.800000 388.800000L220.800000 43.200000"/>
</g>
<g id="line2d12">
<g ><use style="fill: none; stroke: #000000; stroke-width: 0.500000; stroke-linejoin: round; stroke-linecap: butt;  opacity: 1.000000" xlink:href="#m30e32995789d870ad79a2e54c91cf9c6" x="220.800000" y="388.800000"/>
</g></g>
<g id="line2d13">
<g ><use style="fill: none; stroke: #000000; stroke-width: 0.500000; stroke-linejoin: round; stroke-linecap: butt;  opacity: 1.000000" xlink:href="#m9281cae24120827b11d5ea8a7ad3e96b" x="220.800000" y="43.200000"/>
</g></g>
<g id="text4">
<g style="fill: #000000; opacity: 1.000000" transform="translate(206.573437,401.706250)scale(0.120000)">
<use xlink:href="#c_42baa63129a918535c52adb20d687ea7"/>
<use xlink:href="#c_1260a2df50f305f3db244e29828f968e" x="63.623047"/>
<use xlink:href="#c_7a2040fe3b94fcd41d0a72c84e93b115" x="127.246094"/>
<use xlink:href="#c_7a2040fe3b94fcd41d0a72c84e93b115" x="190.869141"/>
</g>
</g>
</g>
<g id="xtick5">
<g id="line2d14">
<path style="fill: none; stroke: #000000; stroke-width: 0.500000; stroke-linejoin: round; stroke-linecap: butt; stroke-dasharray: 1.000000,3.000000; stroke-dashoffset: 0.000000; opacity: 1.000000" clip-path="url(#p50431ccdcb28178602d99d9270004dde)" d="M270.400000 388.800000L270.400000 43.200000"/>
</g>
<g id="line2d15">
<g ><use style="fill: none; stroke: #000000; stroke-width: 0.500000; stroke-linejoin: round; stroke-linecap: butt;  opacity: 1.000000" xlink:href="#m30e32995789d870ad79a2e54c91cf9c6" x="270.400000" y="388.800000"/>
</g></g>
<g id="line2d16">
<g ><use style="fill: none; stroke: #000000; stroke-width: 0.500000; stroke-linejoin: round; stroke-linecap: butt;  opacity: 1.000000" xlink:href="#m9281cae24120827b11d5ea8a7ad3e96b" x="270.400000" y="43.200000"/>
</g></g>
<g id="text5">
<defs>
<path id="c_ed3f3ed3ebfbd18bcb9c012009a68ad1" d="M19.187500 -8.296875l34.421875 0.000000l0.000000 8.296875l-46.281250 0.000000l0.000000 -8.296875q5.609375 -5.812500 15.296875 -15.593750q9.703125 -9.796875 12.187500 -12.640625q4.734375 -5.312500 6.609375 -9.000000q1.890625 -3.687500 1.890625 -7.250000q0.000000 -5.812500 -4.078125 -9.468750q-4.078125 -3.671875 -10.625000 -3.671875q-4.640625 0.000000 -9.796875 1.609375q-5.140625 1.609375 -11.000000 4.890625l0.000000 -9.968750q5.953125 -2.390625 11.125000 -3.609375q5.187500 -1.218750 9.484375 -1.218750q11.328125 0.000000 18.062500 5.671875q6.734375 5.656250 6.734375 15.125000q0.000000 4.500000 -1.687500 8.531250q-1.671875 4.015625 -6.125000 9.484375q-1.218750 1.421875 -7.765625 8.187500q-6.531250 6.765625 -18.453125 18.921875"/>
</defs>
<g style="fill: #000000; opacity: 1.000000" transform="translate(255.954687,401.706250)scale(0.120000)">
<use xlink:href="#c_ed3f3ed3ebfbd18bcb9c012009a68ad1"/>
<use xlink:href="#c_7a2040fe3b94fcd41d0a72c84e93b115" x="63.623047"/>
<use xlink:href="#c_7a2040fe3b94fcd41d0a72c84e93b115" x="127.246094"/>
<use xlink:href="#c_7a2040fe3b94fcd41d0a72c84e93b115" x="190.869141"/>
</g>
</g>
</g>
<g id="xtick6">
<g id="line2d17">
<path style="fill: none; stroke: #000000; stroke-width: 0.500000; stroke-linejoin: round; stroke-linecap: butt; stroke-dasharray: 1.000000,3.000000; stroke-dashoffset: 0.000000; opacity: 1.000000" clip-path="url(#p50431ccdcb28178602d99d9270004dde)" d="M320.000000 388.800000L320.000000 43.200000"/>
</g>
<g id="line2d18">
<g ><use style="fill: none; stroke: #000000; stroke-width: 0.500000; stroke-linejoin: round; stroke-linecap: butt;  opacity: 1.000000" xlink:href="#m30e32995789d870ad79a2e54c91cf9c6" x="320.000000" y="388.800000"/>
</g></g>
<g id="line2d19">
<g ><use style="fill: none; stroke: #000000; stroke-width: 0.500000; stroke-linejoin: round; stroke-linecap: butt;  opacity: 1.000000" xlink:href="#m9281cae24120827b11d5ea8a7ad3e96b" x="320.000000" y="43.200000"/>
</g></g>
<g id="text6">
<g style="fill: #000000; opacity: 1.000000" transform="translate(305.554688,401.706250)scale(0.120000)">
<use xlink:href="#c_ed3f3ed3ebfbd18bcb9c012009a68ad1"/>
<use xlink:href="#c_1260a2df50f305f3db244e29828f968e" x="63.623047"/>
<use xlink:href="#c_7a2040fe3b94fcd41d0a72c84e93b115" x="127.246094"/>
<use xlink:href="#c_7a2040fe3b94fcd41d0a72c84e93b115" x="190.869141"/>
</g>
</g>
</g>
<g id="xtick7">
<g id="line2d20">
<path style="fill: none; stroke: #000000; stroke-width: 0.500000; stroke-linejoin: round; stroke-linecap: butt; stroke-dasharray: 1.000000,3.000000; stroke-dashoffset: 0.000000; opacity: 1.000000" clip-path="url(#p50431ccdcb28178602d99d9270004dde)" d="M369.600000 388.800000L369.600000 43.200000"/>
</g>
<g id="line2d21">
<g ><use style="fill: none; stroke: #000000; stroke-width: 0.500000; stroke-linejoin: round; stroke-linecap: butt;  opacity: 1.000000" xlink:href="#m30e32995789d870ad79a2e54c91cf9c6" x="369.600000" y="388.800000"/>
</g></g>
<g id="line2d22">
<g ><use style="fill: none; stroke: #000000; stroke-width: 0.500000; stroke-linejoin: round; stroke-linecap: butt;  opacity: 1.000000" xlink:href="#m9281cae24120827b11d5ea8a7ad3e96b" x="369.600000" y="43.200000"/>
</g></g>
<g id="text7">
<defs>
<path id="c_3dcfa38a02242cb63ec6726c6e70be7a" d="M40.578125 -39.312500q7.078125 1.515625 11.046875 6.312500q3.984375 4.781250 3.984375 11.812500q0.000000 10.781250 -7.421875 16.703125q-7.421875 5.906250 -21.093750 5.906250q-4.578125 0.000000 -9.437500 -0.906250q-4.859375 -0.906250 -10.031250 -2.718750l0.000000 -9.515625q4.093750 2.390625 8.968750 3.609375q4.890625 1.218750 10.218750 1.218750q9.265625 0.000000 14.125000 -3.656250q4.859375 -3.656250 4.859375 -10.640625q0.000000 -6.453125 -4.515625 -10.078125q-4.515625 -3.640625 -12.562500 -3.640625l-8.500000 0.000000l0.000000 -8.109375l8.890625 0.000000q7.265625 0.000000 11.125000 -2.906250q3.859375 -2.906250 3.859375 -8.375000q0.000000 -5.609375 -3.984375 -8.609375q-3.968750 -3.015625 -11.390625 -3.015625q-4.062500 0.000000 -8.703125 0.890625q-4.640625 0.875000 -10.203125 2.718750l0.000000 -8.781250q5.625000 -1.562500 10.531250 -2.343750q4.906250 -0.781250 9.250000 -0.781250q11.234375 0.000000 17.765625 5.109375q6.546875 5.093750 6.546875 13.781250q0.000000 6.062500 -3.468750 10.234375q-3.468750 4.171875 -9.859375 5.781250"/>
</defs>
<g style="fill: #000000; opacity: 1.000000" transform="translate(355.178125,401.706250)scale(0.120000)">
<use xlink:href="#c_3dcfa38a02242cb63ec6726c6e70be7a"/>
<use xlink:href="#c_7a2040fe3b94fcd41d0a72c84e93b115" x="63.623047"/>
<use xlink:href="#c_7a2040fe3b94fcd41d0a72c84e93b115" x="127.246094"/>
<use xlink:href="#c_7a2040fe3b94fcd41d0a72c84e93b115" x="190.869141"/>
</g>
</g>
</g>
<g id="xtick8">
<g id="line2d23">
<path style="fill: none; stroke: #000000; stroke-width: 0.500000; stroke-linejoin: round; stroke-linecap: butt; stroke-dasharray: 1.000000,3.000000; stroke-dashoffset: 0.000000; opacity: 1.000000" clip-path="url(#p50431ccdcb28178602d99d9270004dde)" d="M419.200000 388.800000L419.200000 43.200000"/>
</g>
<g id="line2d24">
<g ><use style="fill: none; stroke: #000000; stroke-width: 0.500000; stroke-linejoin: round; stroke-linecap: butt;  opacity: 1.000000" xlink:href="#m30e32995789d870ad79a2e54c91cf9c6" x="419.200000" y="388.800000"/>
</g></g>
<g id="line2d25">
<g ><use style="fill: none; stroke: #000000; stroke-width: 0.500000; stroke-linejoin: round; stroke-linecap: butt;  opacity: 1.000000" xlink:href="#m9281cae24120827b11d5ea8a7ad3e96b" x="419.200000" y="43.200000"/>
</g></g>
<g id="text8">
<g style="fill: #000000; opacity: 1.000000" transform="translate(404.778125,401.706250)scale(0.120000)">
<use xlink:href="#c_3dcfa38a02242cb63ec6726c6e70be7a"/>
<use xlink:href="#c_1260a2df50f305f3db244e29828f968e" x="63.623047"/>
<use xlink:href="#c_7a2040fe3b94fcd41d0a72c84e93b115" x="127.246094"/>
<use xlink:href="#c_7a2040fe3b94fcd41d0a72c84e93b115" x="190.869141"/>
</g>
</g>
</g>
<g id="xtick9">
<g id="line2d26">
<path style="fill: none; stroke: #000000; stroke-width: 0.500000; stroke-linejoin: round; stroke-linecap: butt; stroke-dasharray: 1.000000,3.000000; stroke-dashoffset: 0.000000; opacity: 1.000000" clip-path="url(#p50431ccdcb28178602d99d9270004dde)" d="M468.800000 388.800000L468.800000 43.200000"/>
</g>
<g id="line2d27">
<g ><use style="fill: none; stroke: #000000; stroke-width: 0.500000; stroke-linejoin: round; stroke-linecap: butt;  opacity: 1.000000" xlink:href="#m30e32995789d870ad79a2e54c91cf9c6" x="468.800000" y="388.800000"/>
</g></g>
<g id="line2d28">
<g ><use style="fill: none; stroke: #000000; stroke-width: 0.500000; stroke-linejoin: round; stroke-linecap: butt;  opacity: 1.000000" xlink:href="#m9281cae24120827b11d5ea8a7ad3e96b" x="468.800000" y="43.200000"/>
</g></g>
<g id="text9">
<defs>
<path id="c_a0416418d96557a09b8c1332d34883ba" d="M37.796875 -64.312500l-24.906250 38.921875l24.906250 0.000000zM35.203125 -72.906250l12.406250 0.000000l0.000000 47.515625l10.406250 0.000000l0.000000 8.203125l-10.406250 0.000000l0.000000 17.187500l-9.812500 0.000000l0.000000 -17.187500l-32.906250 0.000000l0.000000 -9.515625z"/>
</defs>
<g style="fill: #000000; opacity: 1.000000" transform="translate(454.214063,401.706250)scale(0.120000)">
<use xlink:href="#c_a0416418d96557a09b8c1332d34883ba"/>
<use xlink:href="#c_7a2040fe3b94fcd41d0a72c84e93b115" x="63.623047"/>
<use xlink:href="#c_7a2040fe3b94fcd41d0a72c84e93b115" x="127.246094"/>
<use xlink:href="#c_7a2040fe3b94fcd41d0a72c84e93b115" x="190.869141"/>
</g>
</g>
</g>
<g id="xtick10">
<g id="line2d29">
<path style="fill: none; stroke: #000000; stroke-width: 0.500000; stroke-linejoin: round; stroke-linecap: butt; stroke-dasharray: 1.000000,3.000000; stroke-dashoffset: 0.000000; opacity: 1.000000" clip-path="url(#p50431ccdcb28178602d99d9270004dde)" d="M518.400000 388.800000L518.400000 43.200000"/>
</g>
<g id="line2d30">
<g ><use style="fill: none; stroke: #000000; stroke-width: 0.500000; stroke-linejoin: round; stroke-linecap: butt;  opacity: 1.000000" xlink:href="#m30e32995789d870ad79a2e54c91cf9c6" x="518.400000" y="388.800000"/>
</g></g>
<g id="line2d31">
<g ><use style="fill: none; stroke: #000000; stroke-width: 0.500000; stroke-linejoin: round; stroke-linecap: butt;  opacity: 1.000000" xlink:href="#m9281cae24120827b11d5ea8a7ad3e96b" x="518.400000" y="43.200000"/>
</g></g>
<g id="text10">
<g style="fill: #000000; opacity: 1.000000" transform="translate(503.814062,401.706250)scale(0.120000)">
<use xlink:href="#c_a0416418d96557a09b8c1332d34883ba"/>
<use xlink:href="#c_1260a2df50f305f3db244e29828f968e" x="63.623047"/>
<use xlink:href="#c_7a2040fe3b94fcd41d0a72c84e93b115" x="127.246094"/>
<use xlink:href="#c_7a2040fe3b94fcd41d0a72c84e93b115" x="190.869141"/>
</g>
</g>
</g>
<g id="text11">
<defs>
<path id="c_5d9b0d099c491f27a9f40b391fa98eef" d="M9.812500 -72.906250l41.890625 0.000000l0.000000 8.312500l-32.031250 0.000000l0.000000 21.484375l28.906250 0.000000l0.000000 8.296875l-28.906250 0.000000l0.000000 34.812500l-9.859375 0.000000z"/>
<path id="c_6ec8d5749226675394676a5d2a3b468b" d="M41.109375 -46.296875q-1.515625 -0.875000 -3.296875 -1.281250q-1.781250 -0.421875 -3.921875 -0.421875q-7.625000 0.000000 -11.703125 4.953125q-4.078125 4.953125 -4.078125 14.234375l0.000000 28.812500l-9.031250 0.000000l0.000000 -54.687500l9.031250 0.000000l0.000000 8.500000q2.843750 -4.984375 7.375000 -7.390625q4.546875 -2.421875 11.046875 -2.421875q0.921875 0.000000 2.046875 0.125000q1.125000 0.109375 2.484375 0.359375z"/>
<path id="c_0bce5afba2dc6b9024b26277c38ad8e8" d="M56.203125 -29.593750l0.000000 4.390625l-41.312500 0.000000q0.593750 9.281250 5.593750 14.140625q5.000000 4.859375 13.937500 4.859375q5.171875 0.000000 10.031250 -1.265625q4.859375 -1.265625 9.656250 -3.812500l0.000000 8.500000q-4.843750 2.046875 -9.921875 3.125000q-5.078125 1.078125 -10.296875 1.078125q-13.093750 0.000000 -20.734375 -7.609375q-7.640625 -7.625000 -7.640625 -20.625000q0.000000 -13.421875 7.250000 -21.296875q7.250000 -7.890625 19.562500 -7.890625q11.031250 0.000000 17.453125 7.109375q6.421875 7.093750 6.421875 19.296875M47.218750 -32.234375q-0.093750 -7.359375 -4.125000 -11.750000q-4.031250 -4.406250 -10.671875 -4.406250q-7.515625 0.000000 -12.031250 4.250000q-4.515625 4.250000 -5.203125 11.968750z"/>
<path id="c_a66ecc39892414b9ca9362e0fffdc75b" d="M14.796875 -27.296875q0.000000 9.906250 4.078125 15.546875q4.078125 5.640625 11.203125 5.640625q7.125000 0.000000 11.218750 -5.640625q4.109375 -5.640625 4.109375 -15.546875q0.000000 -9.906250 -4.109375 -15.546875q-4.093750 -5.640625 -11.218750 -5.640625q-7.125000 0.000000 -11.203125 5.640625q-4.078125 5.640625 -4.078125 15.546875M45.406250 -8.203125q-2.828125 4.875000 -7.156250 7.250000q-4.312500 2.375000 -10.375000 2.375000q-9.906250 0.000000 -16.140625 -7.906250q-6.218750 -7.921875 -6.218750 -20.812500q0.000000 -12.890625 6.218750 -20.796875q6.234375 -7.906250 16.140625 -7.906250q6.062500 0.000000 10.375000 2.375000q4.328125 2.359375 7.156250 7.234375l0.000000 -8.296875l8.984375 0.000000l0.000000 75.484375l-8.984375 0.000000z"/>
<path id="c_3b515ad41f960e225ec85275856806ca" d="M8.500000 -21.578125l0.000000 -33.109375l8.984375 0.000000l0.000000 32.765625q0.000000 7.765625 3.015625 11.656250q3.031250 3.875000 9.093750 3.875000q7.265625 0.000000 11.484375 -4.640625q4.234375 -4.640625 4.234375 -12.656250l0.000000 -31.000000l8.984375 0.000000l0.000000 54.687500l-8.984375 0.000000l0.000000 -8.406250q-3.265625 4.984375 -7.593750 7.406250q-4.312500 2.421875 -10.031250 2.421875q-9.421875 0.000000 -14.312500 -5.859375q-4.875000 -5.859375 -4.875000 -17.140625M31.109375 -56.000000z"/>
<path id="c_fe791a90f5471e2ab20a5ed41a7fa451" d="M54.890625 -33.015625l0.000000 33.015625l-8.984375 0.000000l0.000000 -32.718750q0.000000 -7.765625 -3.031250 -11.609375q-3.031250 -3.859375 -9.078125 -3.859375q-7.281250 0.000000 -11.484375 4.640625q-4.203125 4.625000 -4.203125 12.640625l0.000000 30.906250l-9.031250 0.000000l0.000000 -54.687500l9.031250 0.000000l0.000000 8.500000q3.234375 -4.937500 7.593750 -7.375000q4.375000 -2.437500 10.093750 -2.437500q9.421875 0.000000 14.250000 5.828125q4.843750 5.828125 4.843750 17.156250"/>
<path id="c_d650c37394b681142a10dfc54356d478" d="M48.781250 -52.593750l0.000000 8.406250q-3.812500 -2.109375 -7.640625 -3.156250q-3.828125 -1.046875 -7.734375 -1.046875q-8.750000 0.000000 -13.593750 5.546875q-4.828125 5.531250 -4.828125 15.546875q0.000000 10.015625 4.828125 15.562500q4.843750 5.531250 13.593750 5.531250q3.906250 0.000000 7.734375 -1.046875q3.828125 -1.046875 7.640625 -3.156250l0.000000 8.312500q-3.765625 1.750000 -7.796875 2.625000q-4.015625 0.890625 -8.562500 0.890625q-12.359375 0.000000 -19.640625 -7.765625q-7.265625 -7.765625 -7.265625 -20.953125q0.000000 -13.375000 7.343750 -21.031250q7.359375 -7.671875 20.156250 -7.671875q4.140625 0.000000 8.093750 0.859375q3.953125 0.843750 7.671875 2.546875"/>
<path id="c_3fe22c4af425ac970aec982ae9662abe" d="M32.171875 5.078125q-3.796875 9.765625 -7.421875 12.734375q-3.609375 2.984375 -9.656250 2.984375l-7.187500 0.000000l0.000000 -7.515625l5.281250 0.000000q3.703125 0.000000 5.750000 -1.765625q2.062500 -1.750000 4.546875 -8.296875l1.609375 -4.093750l-22.109375 -53.812500l9.515625 0.000000l17.093750 42.765625l17.093750 -42.765625l9.515625 0.000000z"/>
<path id="c_d41d8cd98f00b204e9800998ecf8427e" d=""/>
<path id="c_74d54c94aa871ec39e2bc6697dde6c00" d="M54.890625 -33.015625l0.000000 33.015625l-8.984375 0.000000l0.000000 -32.718750q0.000000 -7.765625 -3.031250 -11.609375q-3.031250 -3.859375 -9.078125 -3.859375q-7.281250 0.000000 -11.484375 4.640625q-4.203125 4.625000 -4.203125 12.640625l0.000000 30.906250l-9.031250 0.000000l0.000000 -75.984375l9.031250 0.000000l0.000000 29.796875q3.234375 -4.937500 7.593750 -7.375000q4.375000 -2.437500 10.093750 -2.437500q9.421875 0.000000 14.250000 5.828125q4.843750 5.828125 4.843750 17.156250"/>
<path id="c_01d93a582460e35a7945ca50d148ffeb" d="M34.281250 -27.484375q-10.890625 0.000000 -15.093750 2.484375q-4.203125 2.484375 -4.203125 8.500000q0.000000 4.781250 3.156250 7.593750q3.156250 2.796875 8.562500 2.796875q7.484375 0.000000 12.000000 -5.296875q4.515625 -5.296875 4.515625 -14.078125l0.000000 -2.000000zM52.203125 -31.203125l0.000000 31.203125l-8.984375 0.000000l0.000000 -8.296875q-3.078125 4.968750 -7.671875 7.343750q-4.593750 2.375000 -11.234375 2.375000q-8.390625 0.000000 -13.359375 -4.718750q-4.953125 -4.718750 -4.953125 -12.625000q0.000000 -9.218750 6.171875 -13.906250q6.187500 -4.687500 18.437500 -4.687500l12.609375 0.000000l0.000000 -0.890625q0.000000 -6.203125 -4.078125 -9.593750q-4.078125 -3.390625 -11.453125 -3.390625q-4.687500 0.000000 -9.140625 1.125000q-4.437500 1.125000 -8.531250 3.375000l0.000000 -8.312500q4.921875 -1.906250 9.562500 -2.843750q4.640625 -0.953125 9.031250 -0.953125q11.875000 0.000000 17.734375 6.156250q5.859375 6.140625 5.859375 18.640625"/>
<path id="c_5099edb83619131346ae654950954dea" d="M9.421875 -75.984375l8.984375 0.000000l0.000000 75.984375l-8.984375 0.000000z"/>
<path id="c_8e0810ad13fe20a2a87a2619799b154d" d="M44.281250 -53.078125l0.000000 8.500000q-3.796875 -1.953125 -7.906250 -2.921875q-4.093750 -0.984375 -8.500000 -0.984375q-6.687500 0.000000 -10.031250 2.046875q-3.343750 2.046875 -3.343750 6.156250q0.000000 3.125000 2.390625 4.906250q2.390625 1.781250 9.625000 3.390625l3.078125 0.687500q9.562500 2.046875 13.593750 5.781250q4.031250 3.734375 4.031250 10.421875q0.000000 7.625000 -6.031250 12.078125q-6.031250 4.437500 -16.578125 4.437500q-4.390625 0.000000 -9.156250 -0.859375q-4.765625 -0.859375 -10.031250 -2.562500l0.000000 -9.281250q4.984375 2.593750 9.812500 3.890625q4.828125 1.281250 9.578125 1.281250q6.343750 0.000000 9.750000 -2.171875q3.421875 -2.171875 3.421875 -6.125000q0.000000 -3.656250 -2.468750 -5.609375q-2.453125 -1.953125 -10.812500 -3.765625l-3.125000 -0.734375q-8.343750 -1.750000 -12.062500 -5.390625q-3.703125 -3.640625 -3.703125 -9.984375q0.000000 -7.718750 5.468750 -11.906250q5.468750 -4.203125 15.531250 -4.203125q4.968750 0.000000 9.359375 0.734375q4.406250 0.718750 8.109375 2.187500"/>
<path id="c_83c92fcf7184248154f741f54a0382f5" d="M11.718750 -12.406250l10.296875 0.000000l0.000000 8.406250l-8.000000 15.625000l-6.296875 0.000000l4.000000 -15.625000z"/>
<path id="c_8c0379a31aa3b07b28207e25658c6113" d="M10.593750 -45.406250l62.593750 0.000000l0.000000 8.203125l-62.593750 0.000000zM10.593750 -25.484375l62.593750 0.000000l0.000000 8.296875l-62.593750 0.000000z"/>
<path id="c_ed3e21196fb739f392806f09ca0594ef" d="M10.687500 -12.406250l10.312500 0.000000l0.000000 12.406250l-10.312500 0.000000z"/>
<path id="c_956f18cfdaf972f35a6c2b4aaac2532b" d="M8.203125 -72.906250l46.875000 0.000000l0.000000 4.203125l-26.468750 68.703125l-10.296875 0.000000l24.906250 -64.593750l-35.015625 0.000000z"/>
<path id="c_5e9f44da4350eed47d2641510279ca20" d="M9.812500 -72.906250l9.859375 0.000000l0.000000 29.890625l35.843750 0.000000l0.000000 -29.890625l9.859375 0.000000l0.000000 72.906250l-9.859375 0.000000l0.000000 -34.718750l-35.843750 0.000000l0.000000 34.718750l-9.859375 0.000000z"/>
<path id="c_9f267d35ece7e6f3f1d851c2e17a8dec" d="M5.515625 -54.687500l42.671875 0.000000l0.000000 8.203125l-33.781250 39.312500l33.781250 0.000000l0.000000 7.171875l-43.890625 0.000000l0.000000 -8.203125l33.796875 -39.312500l-32.578125 0.000000z"/>
<path id="c_9c6d5cbc59c6231647eb409cc6b37bb3" d="M25.390625 -72.906250l8.296875 0.000000l-25.390625 82.187500l-8.296875 0.000000z"/>
</defs>
<g style="fill: #000000; opacity: 1.000000" transform="translate(149.700000,416.003125)scale(0.120000)">
<use xlink:href="#c_5d9b0d099c491f27a9f40b391fa98eef"/>
<use xlink:href="#c_6ec8d5749226675394676a5d2a3b468b" x="50.269531"/>
<use xlink:href="#c_0bce5afba2dc6b9024b26277c38ad8e8" x="89.132812"/>
<use xlink:href="#c_a66ecc39892414b9ca9362e0fffdc75b" x="150.656250"/>
<use xlink:href="#c_3b515ad41f960e225ec85275856806ca" x="214.132812"/>
<use xlink:href="#c_0bce5afba2dc6b9024b26277c38ad8e8" x="277.511719"/>
<use xlink:href="#c_fe791a90f5471e2ab20a5ed41a7fa451" x="339.035156"/>
<use xlink:href="#c_d650c37394b681142a10dfc54356d478" x="402.414062"/>
<use xlink:href="#c_3fe22c4af425ac970aec982ae9662abe" x="457.394531"/>
<use xlink:href="#c_d41d8cd98f00b204e9800998ecf8427e" x="516.574219"/>
<use xlink:href="#c_d650c37394b681142a10dfc54356d478" x="548.361328"/>
<use xlink:href="#c_74d54c94aa871ec39e2bc6697dde6c00" x="603.341797"/>
<use xlink:href="#c_01d93a582460e35a7945ca50d148ffeb" x="666.720703"/>
<use xlink:href="#c_fe791a90f5471e2ab20a5ed41a7fa451" x="728.000000"/>
<use xlink:href="#c_fe791a90f5471e2ab20a5ed41a7fa451" x="791.378906"/>
<use xlink:href="#c_0bce5afba2dc6b9024b26277c38ad8e8" x="854.757812"/>
<use xlink:href="#c_5099edb83619131346ae654950954dea" x="916.281250"/>
<use xlink:href="#c_8e0810ad13fe20a2a87a2619799b154d" x="944.064453"/>
<use xlink:href="#c_83c92fcf7184248154f741f54a0382f5" x="996.164063"/>
<use xlink:href="#c_d41d8cd98f00b204e9800998ecf8427e" x="1027.951172"/>
<use xlink:href="#c_6ec8d5749226675394676a5d2a3b468b" x="1059.738281"/>
<use xlink:href="#c_0bce5afba2dc6b9024b26277c38ad8e8" x="1098.601562"/>
<use xlink:href="#c_8e0810ad13fe20a2a87a2619799b154d" x="1160.125000"/>
<use xlink:href="#c_d41d8cd98f00b204e9800998ecf8427e" x="1212.224609"/>
<use xlink:href="#c_8c0379a31aa3b07b28207e25658c6113" x="1244.011719"/>
<use xlink:href="#c_d41d8cd98f00b204e9800998ecf8427e" x="1327.800781"/>
<use xlink:href="#c_42baa63129a918535c52adb20d687ea7" x="1359.587891"/>
<use xlink:href="#c_ed3f3ed3ebfbd18bcb9c012009a68ad1" x="1423.210938"/>
<use xlink:href="#c_ed3f3ed3ebfbd18bcb9c012009a68ad1" x="1486.833984"/>
<use xlink:href="#c_7a2040fe3b94fcd41d0a72c84e93b115" x="1550.457031"/>
<use xlink:href="#c_ed3e21196fb739f392806f09ca0594ef" x="1614.080078"/>
<use xlink:href="#c_956f18cfdaf972f35a6c2b4aaac2532b" x="1645.867188"/>
<use xlink:href="#c_7a2040fe3b94fcd41d0a72c84e93b115" x="1709.490234"/>
<use xlink:href="#c_3dcfa38a02242cb63ec6726c6e70be7a" x="1773.113281"/>
<use xlink:href="#c_42baa63129a918535c52adb20d687ea7" x="1836.736328"/>
<use xlink:href="#c_ed3f3ed3ebfbd18bcb9c012009a68ad1" x="1900.359375"/>
<use xlink:href="#c_1260a2df50f305f3db244e29828f968e" x="1963.982422"/>
<use xlink:href="#c_5e9f44da4350eed47d2641510279ca20" x="2027.605469"/>
<use xlink:href="#c_9f267d35ece7e6f3f1d851c2e17a8dec" x="2102.800781"/>
<use xlink:href="#c_9c6d5cbc59c6231647eb409cc6b37bb3" x="2155.291016"/>
<use xlink:href="#c_d650c37394b681142a10dfc54356d478" x="2188.982422"/>
<use xlink:href="#c_74d54c94aa871ec39e2bc6697dde6c00" x="2243.962891"/>
<use xlink:href="#c_01d93a582460e35a7945ca50d148ffeb" x="2307.341797"/>
<use xlink:href="#c_fe791a90f5471e2ab20a5ed41a7fa451" x="2368.621094"/>
</g>
</g>
</g>
<g id="matplotlib.axis2">
<g id="ytick1">
<g id="line2d32">
<path style="fill: none; stroke: #000000; stroke-width: 0.500000; stroke-linejoin: round; stroke-linecap: butt; stroke-dasharray: 1.000000,3.000000; stroke-dashoffset: 0.000000; opacity: 1.000000" clip-path="url(#p50431ccdcb28178602d99d9270004dde)" d="M72.000000 388.800000L518.400000 388.800000"/>
</g>
<g id="line2d33">
<defs><path id="m3400efa6b1638b3fea9e19e898273957" d="M0.000000 0.000000L4.000000 0.000000"/></defs>
<g ><use style="fill: none; stroke: #000000; stroke-width: 0.500000; stroke-linejoin: round; stroke-linecap: butt;  opacity: 1.000000" xlink:href="#m3400efa6b1638b3fea9e19e898273957" x="72.000000" y="388.800000"/>
</g></g>
<g id="line2d34">
<defs><path id="m20b58b2501143cb5e0a5e8f1ef6f1643" d="M0.000000 0.000000L-4.000000 0.000000"/></defs>
<g ><use style="fill: none; stroke: #000000; stroke-width: 0.500000; stroke-linejoin: round; stroke-linecap: butt;  opacity: 1.000000" xlink:href="#m20b58b2501143cb5e0a5e8f1ef6f1643" x="518.400000" y="388.800000"/>
</g></g>
<g id="text12">
<g style="fill: #000000; opacity: 1.000000" transform="translate(54.437500,393.167188)scale(0.120000)">
<use xlink:href="#c_3dcfa38a02242cb63ec6726c6e70be7a"/>
<use xlink:href="#c_7a2040fe3b94fcd41d0a72c84e93b115" x="63.623047"/>
</g>
</g>
</g>
<g id="ytick2">
<g id="line2d35">
<path style="fill: none; stroke: #000000; stroke-width: 0.500000; stroke-linejoin: round; stroke-linecap: butt; stroke-dasharray: 1.000000,3.000000; stroke-dashoffset: 0.000000; opacity: 1.000000" clip-path="url(#p50431ccdcb28178602d99d9270004dde)" d="M72.000000 339.428571L518.400000 339.428571"/>
</g>
<g id="line2d36">
<g ><use style="fill: none; stroke: #000000; stroke-width: 0.500000; stroke-linejoin: round; stroke-linecap: butt;  opacity: 1.000000" xlink:href="#m3400efa6b1638b3fea9e19e898273957" x="72.000000" y="339.428571"/>
</g></g>
<g id="line2d37">
<g ><use style="fill: none; stroke: #000000; stroke-width: 0.500000; stroke-linejoin: round; stroke-linecap: butt;  opacity: 1.000000" xlink:href="#m20b58b2501143cb5e0a5e8f1ef6f1643" x="518.400000" y="339.428571"/>
</g></g>
<g id="text13">
<g style="fill: #000000; opacity: 1.000000" transform="translate(54.109375,343.795759)scale(0.120000)">
<use xlink:href="#c_a0416418d96557a09b8c1332d34883ba"/>
<use xlink:href="#c_7a2040fe3b94fcd41d0a72c84e93b115" x="63.623047"/>
</g>
</g>
</g>
<g id="ytick3">
<g id="line2d38">
<path style="fill: none; stroke: #000000; stroke-width: 0.500000; stroke-linejoin: round; stroke-linecap: butt; stroke-dasharray: 1.000000,3.000000; stroke-dashoffset: 0.000000; opacity: 1.000000" clip-path="url(#p50431ccdcb28178602d99d9270004dde)" d="M72.000000 290.057143L518.400000 290.057143"/>
</g>
<g id="line2d39">
<g ><use style="fill: none; stroke: #000000; stroke-width: 0.500000; stroke-linejoin: round; stroke-linecap: butt;  opacity: 1.000000" xlink:href="#m3400efa6b1638b3fea9e19e898273957" x="72.000000" y="290.057143"/>
</g></g>
<g id="line2d40">
<g ><use style="fill: none; stroke: #000000; stroke-width: 0.500000; stroke-linejoin: round; stroke-linecap: butt;  opacity: 1.000000" xlink:href="#m20b58b2501143cb5e0a5e8f1ef6f1643" x="518.400000" y="290.057143"/>
</g></g>
<g id="text14">
<g style="fill: #000000; opacity: 1.000000" transform="translate(54.437500,294.424330)scale(0.120000)">
<use xlink:href="#c_1260a2df50f305f3db244e29828f968e"/>
<use xlink:href="#c_7a2040fe3b94fcd41d0a72c84e93b115" x="63.623047"/>
</g>
</g>
</g>
<g id="ytick4">
<g id="line2d41">
<path style="fill: none; stroke: #000000; stroke-width: 0.500000; stroke-linejoin: round; stroke-linecap: butt; stroke-dasharray: 1.000000,3.000000; stroke-dashoffset: 0.000000; opacity: 1.000000" clip-path="url(#p50431ccdcb28178602d99d9270004dde)" d="M72.000000 240.685714L518.400000 240.685714"/>
</g>
<g id="line2d42">
<g ><use style="fill: none; stroke: #000000; stroke-width: 0.500000; stroke-linejoin: round; stroke-linecap: butt;  opacity: 1.000000" xlink:href="#m3400efa6b1638b3fea9e19e898273957" x="72.000000" y="240.685714"/>
</g></g>
<g id="line2d43">
<g ><use style="fill: none; stroke: #000000; stroke-width: 0.500000; stroke-linejoin: round; stroke-linecap: butt;  opacity: 1.000000" xlink:href="#m20b58b2501143cb5e0a5e8f1ef6f1643" x="518.400000" y="240.685714"/>
</g></g>
<g id="text15">
<defs>
<path id="c_cc8d6d580d1b10c8632f7a42cd53db8a" d="M33.015625 -40.375000q-6.640625 0.000000 -10.531250 4.546875q-3.875000 4.531250 -3.875000 12.437500q0.000000 7.859375 3.875000 12.437500q3.890625 4.562500 10.531250 4.562500q6.640625 0.000000 10.515625 -4.562500q3.875000 -4.578125 3.875000 -12.437500q0.000000 -7.906250 -3.875000 -12.437500q-3.875000 -4.546875 -10.515625 -4.546875M52.593750 -71.296875l0.000000 8.984375q-3.718750 -1.750000 -7.500000 -2.671875q-3.781250 -0.937500 -7.500000 -0.937500q-9.765625 0.000000 -14.921875 6.593750q-5.140625 6.593750 -5.875000 19.921875q2.875000 -4.250000 7.218750 -6.515625q4.359375 -2.265625 9.578125 -2.265625q10.984375 0.000000 17.359375 6.671875q6.375000 6.656250 6.375000 18.125000q0.000000 11.234375 -6.640625 18.031250q-6.640625 6.781250 -17.671875 6.781250q-12.656250 0.000000 -19.343750 -9.687500q-6.687500 -9.703125 -6.687500 -28.109375q0.000000 -17.281250 8.203125 -27.562500q8.203125 -10.281250 22.015625 -10.281250q3.718750 0.000000 7.500000 0.734375q3.781250 0.734375 7.890625 2.187500"/>
</defs>
<g style="fill: #000000; opacity: 1.000000" transform="translate(54.359375,245.052902)scale(0.120000)">
<use xlink:href="#c_cc8d6d580d1b10c8632f7a42cd53db8a"/>
<use xlink:href="#c_7a2040fe3b94fcd41d0a72c84e93b115" x="63.623047"/>
</g>
</g>
</g>
<g id="ytick5">
<g id="line2d44">
<path style="fill: none; stroke: #000000; stroke-width: 0.500000; stroke-linejoin: round; stroke-linecap: butt; stroke-dasharray: 1.000000,3.000000; stroke-dashoffset: 0.000000; opacity: 1.000000" clip-path="url(#p50431ccdcb28178602d99d9270004dde)" d="M72.000000 191.314286L518.400000 191.314286"/>
</g>
<g id="line2d45">
<g ><use style="fill: none; stroke: #000000; stroke-width: 0.500000; stroke-linejoin: round; stroke-linecap: butt;  opacity: 1.000000" xlink:href="#m3400efa6b1638b3fea9e19e898273957" x="72.000000" y="191.314286"/>
</g></g>
<g id="line2d46">
<g ><use style="fill: none; stroke: #000000; stroke-width: 0.500000; stroke-linejoin: round; stroke-linecap: butt;  opacity: 1.000000" xlink:href="#m20b58b2501143cb5e0a5e8f1ef6f1643" x="518.400000" y="191.314286"/>
</g></g>
<g id="text16">
<g style="fill: #000000; opacity: 1.000000" transform="translate(54.500000,195.681473)scale(0.120000)">
<use xlink:href="#c_956f18cfdaf972f35a6c2b4aaac2532b"/>
<use xlink:href="#c_7a2040fe3b94fcd41d0a72c84e93b115" x="63.623047"/>
</g>
</g>
</g>
<g id="ytick6">
<g id="line2d47">
<path style="fill: none; stroke: #000000; stroke-width: 0.500000; stroke-linejoin: round; stroke-linecap: butt; stroke-dasharray: 1.000000,3.000000; stroke-dashoffset: 0.000000; opacity: 1.000000" clip-path="url(#p50431ccdcb28178602d99d9270004dde)" d="M72.000000 141.942857L518.400000 141.942857"/>
</g>
<g id="line2d48">
<g ><use style="fill: none; stroke: #000000; stroke-width: 0.500000; stroke-linejoin: round; stroke-linecap: butt;  opacity: 1.000000" xlink:href="#m3400efa6b1638b3fea9e19e898273957" x="72.000000" y="141.942857"/>
</g></g>
<g id="line2d49">
<g ><use style="fill: none; stroke: #000000; stroke-width: 0.500000; stroke-linejoin: round; stroke-linecap: butt;  opacity: 1.000000" xlink:href="#m20b58b2501143cb5e0a5e8f1ef6f1643" x="518.400000" y="141.942857"/>
</g></g>
<g id="text17">
<defs>
<path id="c_bef35738d52871942e50b9de9b122bab" d="M31.781250 -34.625000q-7.031250 0.000000 -11.062500 3.765625q-4.015625 3.765625 -4.015625 10.343750q0.000000 6.593750 4.015625 10.359375q4.031250 3.765625 11.062500 3.765625q7.031250 0.000000 11.078125 -3.781250q4.062500 -3.796875 4.062500 -10.343750q0.000000 -6.578125 -4.031250 -10.343750q-4.015625 -3.765625 -11.109375 -3.765625M21.921875 -38.812500q-6.343750 -1.562500 -9.890625 -5.906250q-3.531250 -4.359375 -3.531250 -10.609375q0.000000 -8.734375 6.218750 -13.812500q6.234375 -5.078125 17.062500 -5.078125q10.890625 0.000000 17.093750 5.078125q6.203125 5.078125 6.203125 13.812500q0.000000 6.250000 -3.546875 10.609375q-3.531250 4.343750 -9.828125 5.906250q7.125000 1.656250 11.093750 6.500000q3.984375 4.828125 3.984375 11.796875q0.000000 10.609375 -6.468750 16.281250q-6.468750 5.656250 -18.531250 5.656250q-12.046875 0.000000 -18.531250 -5.656250q-6.468750 -5.671875 -6.468750 -16.281250q0.000000 -6.968750 4.000000 -11.796875q4.015625 -4.843750 11.140625 -6.500000M18.312500 -54.390625q0.000000 5.656250 3.531250 8.828125q3.546875 3.171875 9.937500 3.171875q6.359375 0.000000 9.937500 -3.171875q3.593750 -3.171875 3.593750 -8.828125q0.000000 -5.671875 -3.593750 -8.843750q-3.578125 -3.171875 -9.937500 -3.171875q-6.390625 0.000000 -9.937500 3.171875q-3.531250 3.171875 -3.531250 8.843750"/>
</defs>
<g style="fill: #000000; opacity: 1.000000" transform="translate(54.328125,146.310045)scale(0.120000)">
<use xlink:href="#c_bef35738d52871942e50b9de9b122bab"/>
<use xlink:href="#c_7a2040fe3b94fcd41d0a72c84e93b115" x="63.623047"/>
</g>
</g>
</g>
<g id="ytick7">
<g id="line2d50">
<path style="fill: none; stroke: #000000; stroke-width: 0.500000; stroke-linejoin: round; stroke-linecap: butt; stroke-dasharray: 1.000000,3.000000; stroke-dashoffset: 0.000000; opacity: 1.000000" clip-path="url(#p50431ccdcb28178602d99d9270004dde)" d="M72.000000 92.571429L518.400000 92.571429"/>
</g>
<g id="line2d51">
<g ><use style="fill: none; stroke: #000000; stroke-width: 0.500000; stroke-linejoin: round; stroke-linecap: butt;  opacity: 1.000000" xlink:href="#m3400efa6b1638b3fea9e19e898273957" x="72.000000" y="92.571429"/>
</g></g>
<g id="line2d52">
<g ><use style="fill: none; stroke: #000000; stroke-width: 0.500000; stroke-linejoin: round; stroke-linecap: butt;  opacity: 1.000000" xlink:href="#m20b58b2501143cb5e0a5e8f1ef6f1643" x="518.400000" y="92.571429"/>
</g></g>
<g id="text18">
<defs>
<path id="c_cd96f817f3cab988d24a2b49a5577fe6" d="M10.984375 -1.515625l0.000000 -8.984375q3.718750 1.765625 7.515625 2.687500q3.812500 0.921875 7.484375 0.921875q9.765625 0.000000 14.906250 -6.562500q5.156250 -6.562500 5.890625 -19.953125q-2.828125 4.203125 -7.187500 6.453125q-4.343750 2.250000 -9.609375 2.250000q-10.937500 0.000000 -17.312500 -6.609375q-6.375000 -6.625000 -6.375000 -18.109375q0.000000 -11.218750 6.640625 -18.000000q6.640625 -6.796875 17.671875 -6.796875q12.656250 0.000000 19.312500 9.703125q6.671875 9.687500 6.671875 28.140625q0.000000 17.234375 -8.187500 27.515625q-8.171875 10.281250 -21.984375 10.281250q-3.718750 0.000000 -7.531250 -0.734375q-3.796875 -0.734375 -7.906250 -2.203125M30.609375 -32.421875q6.640625 0.000000 10.515625 -4.531250q3.890625 -4.546875 3.890625 -12.468750q0.000000 -7.859375 -3.890625 -12.421875q-3.875000 -4.562500 -10.515625 -4.562500q-6.640625 0.000000 -10.515625 4.562500q-3.875000 4.562500 -3.875000 12.421875q0.000000 7.921875 3.875000 12.468750q3.875000 4.531250 10.515625 4.531250"/>
</defs>
<g style="fill: #000000; opacity: 1.000000" transform="translate(54.265625,96.938616)scale(0.120000)">
<use xlink:href="#c_cd96f817f3cab988d24a2b49a5577fe6"/>
<use xlink:href="#c_7a2040fe3b94fcd41d0a72c84e93b115" x="63.623047"/>
</g>
</g>
</g>
<g id="ytick8">
<g id="line2d53">
<path style="fill: none; stroke: #000000; stroke-width: 0.500000; stroke-linejoin: round; stroke-linecap: butt; stroke-dasharray: 1.000000,3.000000; stroke-dashoffset: 0.000000; opacity: 1.000000" clip-path="url(#p50431ccdcb28178602d99d9270004dde)" d="M72.000000 43.200000L518.400000 43.200000"/>
</g>
<g id="line2d54">
<g ><use style="fill: none; stroke: #000000; stroke-width: 0.500000; stroke-linejoin: round; stroke-linecap: butt;  opacity: 1.000000" xlink:href="#m3400efa6b1638b3fea9e19e898273957" x="72.000000" y="43.200000"/>
</g></g>
<g id="line2d55">
<g ><use style="fill: none; stroke: #000000; stroke-width: 0.500000; stroke-linejoin: round; stroke-linecap: butt;  opacity: 1.000000" xlink:href="#m20b58b2501143cb5e0a5e8f1ef6f1643" x="518.400000" y="43.200000"/>
</g></g>
<g id="text19">
<g style="fill: #000000; opacity: 1.000000" transform="translate(47.187500,47.567187)scale(0.120000)">
<use xlink:href="#c_42baa63129a918535c52adb20d687ea7"/>
<use xlink:href="#c_7a2040fe3b94fcd41d0a72c84e93b115" x="63.623047"/>
<use xlink:href="#c_7a2040fe3b94fcd41d0a72c84e93b115" x="127.246094"/>
</g>
</g>
</g>
<g id="text20">
<defs>
<path id="c_518d586bee075aa0153eaebfcb5ab11f" d="M19.671875 -64.796875l0.000000 27.390625l12.406250 0.000000q6.890625 0.000000 10.640625 -3.562500q3.765625 -3.562500 3.765625 -10.156250q0.000000 -6.546875 -3.765625 -10.109375q-3.750000 -3.562500 -10.640625 -3.562500zM9.812500 -72.906250l22.265625 0.000000q12.265625 0.000000 18.531250 5.546875q6.281250 5.546875 6.281250 16.234375q0.000000 10.796875 -6.281250 16.312500q-6.265625 5.515625 -18.531250 5.515625l-12.406250 0.000000l0.000000 29.296875l-9.859375 0.000000z"/>
<path id="c_f05dd90d41f04bb96ef1ca503cc2044b" d="M30.609375 -48.390625q-7.218750 0.000000 -11.421875 5.640625q-4.203125 5.640625 -4.203125 15.453125q0.000000 9.812500 4.171875 15.453125q4.187500 5.640625 11.453125 5.640625q7.187500 0.000000 11.375000 -5.656250q4.203125 -5.671875 4.203125 -15.437500q0.000000 -9.718750 -4.203125 -15.406250q-4.187500 -5.687500 -11.375000 -5.687500M30.609375 -56.000000q11.718750 0.000000 18.406250 7.625000q6.703125 7.609375 6.703125 21.078125q0.000000 13.421875 -6.703125 21.078125q-6.687500 7.640625 -18.406250 7.640625q-11.765625 0.000000 -18.437500 -7.640625q-6.656250 -7.656250 -6.656250 -21.078125q0.000000 -13.468750 6.656250 -21.078125q6.671875 -7.625000 18.437500 -7.625000"/>
<path id="c_57adaa7083d7229075db8bc2c5b2febe" d="M4.203125 -54.687500l8.984375 0.000000l11.234375 42.671875l11.171875 -42.671875l10.593750 0.000000l11.234375 42.671875l11.187500 -42.671875l8.984375 0.000000l-14.312500 54.687500l-10.593750 0.000000l-11.765625 -44.828125l-11.812500 44.828125l-10.609375 0.000000z"/>
<path id="c_7efa9804c2b4c09a4b614b91fdebee3d" d="M31.000000 -75.875000q-6.531250 11.218750 -9.718750 22.218750q-3.171875 10.984375 -3.171875 22.265625q0.000000 11.265625 3.203125 22.328125q3.203125 11.062500 9.687500 22.250000l-7.812500 0.000000q-7.312500 -11.484375 -10.953125 -22.562500q-3.640625 -11.078125 -3.640625 -22.015625q0.000000 -10.890625 3.609375 -21.921875q3.625000 -11.046875 10.984375 -22.562500z"/>
<path id="c_d821beae607506e87470f334d9ff47af" d="M45.406250 -46.390625l0.000000 -29.593750l8.984375 0.000000l0.000000 75.984375l-8.984375 0.000000l0.000000 -8.203125q-2.828125 4.875000 -7.156250 7.250000q-4.312500 2.375000 -10.375000 2.375000q-9.906250 0.000000 -16.140625 -7.906250q-6.218750 -7.921875 -6.218750 -20.812500q0.000000 -12.890625 6.218750 -20.796875q6.234375 -7.906250 16.140625 -7.906250q6.062500 0.000000 10.375000 2.375000q4.328125 2.359375 7.156250 7.234375M14.796875 -27.296875q0.000000 9.906250 4.078125 15.546875q4.078125 5.640625 11.203125 5.640625q7.125000 0.000000 11.218750 -5.640625q4.109375 -5.640625 4.109375 -15.546875q0.000000 -9.906250 -4.109375 -15.546875q-4.093750 -5.640625 -11.218750 -5.640625q-7.125000 0.000000 -11.203125 5.640625q-4.078125 5.640625 -4.078125 15.546875"/>
<path id="c_5cc9741494d2ad8f9764e03ae145569f" d="M48.687500 -27.296875q0.000000 -9.906250 -4.078125 -15.546875q-4.078125 -5.640625 -11.203125 -5.640625q-7.140625 0.000000 -11.218750 5.640625q-4.078125 5.640625 -4.078125 15.546875q0.000000 9.906250 4.078125 15.546875q4.078125 5.640625 11.218750 5.640625q7.125000 0.000000 11.203125 -5.640625q4.078125 -5.640625 4.078125 -15.546875M18.109375 -46.390625q2.843750 -4.875000 7.156250 -7.234375q4.328125 -2.375000 10.328125 -2.375000q9.968750 0.000000 16.187500 7.906250q6.234375 7.906250 6.234375 20.796875q0.000000 12.890625 -6.234375 20.812500q-6.218750 7.906250 -16.187500 7.906250q-6.000000 0.000000 -10.328125 -2.375000q-4.312500 -2.375000 -7.156250 -7.250000l0.000000 8.203125l-9.031250 0.000000l0.000000 -75.984375l9.031250 0.000000z"/>
<path id="c_e96974be642f6eac0427d72f9cec6c19" d="M8.015625 -75.875000l7.812500 0.000000q7.312500 11.515625 10.953125 22.562500q3.640625 11.031250 3.640625 21.921875q0.000000 10.937500 -3.640625 22.015625q-3.640625 11.078125 -10.953125 22.562500l-7.812500 0.000000q6.484375 -11.187500 9.687500 -22.250000q3.203125 -11.062500 3.203125 -22.328125q0.000000 -11.281250 -3.203125 -22.265625q-3.203125 -11.000000 -9.687500 -22.218750"/>
</defs>
<g style="fill: #000000; opacity: 1.000000" transform="translate(42.187500,263.664062)rotate(-90.0)scale(0.120000)">
<use xlink:href="#c_518d586bee075aa0153eaebfcb5ab11f"/>
<use xlink:href="#c_f05dd90d41f04bb96ef1ca503cc2044b" x="56.677734"/>
<use xlink:href="#c_57adaa7083d7229075db8bc2c5b2febe" x="117.859375"/>
<use xlink:href="#c_0bce5afba2dc6b9024b26277c38ad8e8" x="199.646484"/>
<use xlink:href="#c_6ec8d5749226675394676a5d2a3b468b" x="261.169922"/>
<use xlink:href="#c_d41d8cd98f00b204e9800998ecf8427e" x="302.283203"/>
<use xlink:href="#c_7efa9804c2b4c09a4b614b91fdebee3d" x="334.070312"/>
<use xlink:href="#c_d821beae607506e87470f334d9ff47af" x="373.083984"/>
<use xlink:href="#c_5cc9741494d2ad8f9764e03ae145569f" x="436.560547"/>
<use xlink:href="#c_d41d8cd98f00b204e9800998ecf8427e" x="500.037109"/>
<use xlink:href="#c_8e0810ad13fe20a2a87a2619799b154d" x="531.824219"/>
<use xlink:href="#c_d650c37394b681142a10dfc54356d478" x="583.923828"/>
<use xlink:href="#c_01d93a582460e35a7945ca50d148ffeb" x="638.904297"/>
<use xlink:href="#c_5099edb83619131346ae654950954dea" x="700.183594"/>
<use xlink:href="#c_0bce5afba2dc6b9024b26277c38ad8e8" x="727.966797"/>
<use xlink:href="#c_e96974be642f6eac0427d72f9cec6c19" x="789.490234"/>
</g>
</g>
</g>
<g id="patch3">
<path style="fill: none; stroke: #000000; stroke-width: 1.000000; stroke-linejoin: round; stroke-linecap: square;  opacity: 1.000000"  d="M72.000000 43.200000L518.400000 43.200000"/>
</g>
<g id="patch4">
<path style="fill: none; stroke: #000000; stroke-width: 1.000000; stroke-linejoin: round; stroke-linecap: square;  opacity: 1.000000"  d="M518.400000 388.800000L518.400000 43.200000"/>
</g>
<g id="patch5">
<path style="fill: none; stroke: #000000; stroke-width: 1.000000; stroke-linejoin: round; stroke-linecap: square;  opacity: 1.000000"  d="M72.000000 388.800000L518.400000 388.800000"/>
</g>
<g id="patch6">
<path style="fill: none; stroke: #000000; stroke-width: 1.000000; stroke-linejoin: round; stroke-linecap: square;  opacity: 1.000000"  d="M72.000000 388.800000L72.000000 43.200000"/>
</g>
<g id="text21">
<defs>
<path id="c_72234ddc5dcad8d05c893ef0371171da" d="M9.812500 -72.906250l14.703125 0.000000l18.593750 49.609375l18.703125 -49.609375l14.703125 0.000000l0.000000 72.906250l-9.625000 0.000000l0.000000 -64.015625l-18.796875 50.000000l-9.906250 0.000000l-18.796875 -50.000000l0.000000 64.015625l-9.578125 0.000000z"/>
<path id="c_6a63bda47b2f3da1cec6aadd80692cfe" d="M9.421875 -54.687500l8.984375 0.000000l0.000000 54.687500l-8.984375 0.000000zM9.421875 -75.984375l8.984375 0.000000l0.000000 11.390625l-8.984375 0.000000z"/>
<path id="c_0f8c41144cfbf448378cb6fd1cc8e549" d="M18.312500 -70.218750l0.000000 15.531250l18.500000 0.000000l0.000000 6.984375l-18.500000 0.000000l0.000000 29.687500q0.000000 6.687500 1.828125 8.593750q1.828125 1.906250 7.453125 1.906250l9.218750 0.000000l0.000000 7.515625l-9.218750 0.000000q-10.406250 0.000000 -14.359375 -3.875000q-3.953125 -3.890625 -3.953125 -14.140625l0.000000 -29.687500l-6.593750 0.000000l0.000000 -6.984375l6.593750 0.000000l0.000000 -15.531250z"/>
<path id="c_e3864de5dabf2f8dd9eee74726882ec1" d="M45.406250 -27.984375q0.000000 -9.765625 -4.031250 -15.125000q-4.015625 -5.375000 -11.296875 -5.375000q-7.218750 0.000000 -11.250000 5.375000q-4.031250 5.359375 -4.031250 15.125000q0.000000 9.718750 4.031250 15.093750q4.031250 5.375000 11.250000 5.375000q7.281250 0.000000 11.296875 -5.375000q4.031250 -5.375000 4.031250 -15.093750M54.390625 -6.781250q0.000000 13.953125 -6.203125 20.765625q-6.187500 6.812500 -18.984375 6.812500q-4.734375 0.000000 -8.937500 -0.703125q-4.203125 -0.703125 -8.156250 -2.171875l0.000000 -8.734375q3.953125 2.140625 7.812500 3.156250q3.859375 1.031250 7.859375 1.031250q8.843750 0.000000 13.234375 -4.609375q4.390625 -4.609375 4.390625 -13.937500l0.000000 -4.453125q-2.781250 4.843750 -7.125000 7.234375q-4.343750 2.390625 -10.406250 2.390625q-10.046875 0.000000 -16.203125 -7.656250q-6.156250 -7.671875 -6.156250 -20.328125q0.000000 -12.687500 6.156250 -20.343750q6.156250 -7.671875 16.203125 -7.671875q6.062500 0.000000 10.406250 2.390625q4.343750 2.390625 7.125000 7.218750l0.000000 -8.296875l8.984375 0.000000z"/>
</defs>
<g style="fill: #000000; opacity: 1.000000" transform="translate(43.965625,35.293750)scale(0.144000)">
<use xlink:href="#c_1260a2df50f305f3db244e29828f968e"/>
<use xlink:href="#c_72234ddc5dcad8d05c893ef0371171da" x="63.623047"/>
<use xlink:href="#c_5e9f44da4350eed47d2641510279ca20" x="149.902344"/>
<use xlink:href="#c_9f267d35ece7e6f3f1d851c2e17a8dec" x="225.097656"/>
<use xlink:href="#c_d41d8cd98f00b204e9800998ecf8427e" x="277.587891"/>
<use xlink:href="#c_5cc9741494d2ad8f9764e03ae145569f" x="309.375000"/>
<use xlink:href="#c_01d93a582460e35a7945ca50d148ffeb" x="372.851562"/>
<use xlink:href="#c_fe791a90f5471e2ab20a5ed41a7fa451" x="434.130859"/>
<use xlink:href="#c_d821beae607506e87470f334d9ff47af" x="497.509766"/>
<use xlink:href="#c_57adaa7083d7229075db8bc2c5b2febe" x="560.986328"/>
<use xlink:href="#c_6a63bda47b2f3da1cec6aadd80692cfe" x="642.773438"/>
<use xlink:href="#c_d821beae607506e87470f334d9ff47af" x="670.556641"/>
<use xlink:href="#c_0f8c41144cfbf448378cb6fd1cc8e549" x="734.033203"/>
<use xlink:href="#c_74d54c94aa871ec39e2bc6697dde6c00" x="773.242188"/>
<use xlink:href="#c_83c92fcf7184248154f741f54a0382f5" x="836.621094"/>
<use xlink:href="#c_d41d8cd98f00b204e9800998ecf8427e" x="868.408203"/>
<use xlink:href="#c_a0416418d96557a09b8c1332d34883ba" x="900.195312"/>
<use xlink:href="#c_7a2040fe3b94fcd41d0a72c84e93b115" x="963.818359"/>
<use xlink:href="#c_cd96f817f3cab988d24a2b49a5577fe6" x="1027.441406"/>
<use xlink:href="#c_cc8d6d580d1b10c8632f7a42cd53db8a" x="1091.064453"/>
<use xlink:href="#c_d41d8cd98f00b204e9800998ecf8427e" x="1154.687500"/>
<use xlink:href="#c_d650c37394b681142a10dfc54356d478" x="1186.474609"/>
<use xlink:href="#c_74d54c94aa871ec39e2bc6697dde6c00" x="1241.455078"/>
<use xlink:href="#c_01d93a582460e35a7945ca50d148ffeb" x="1304.833984"/>
<use xlink:href="#c_fe791a90f5471e2ab20a5ed41a7fa451" x="1366.113281"/>
<use xlink:href="#c_fe791a90f5471e2ab20a5ed41a7fa451" x="1429.492188"/>
<use xlink:href="#c_0bce5afba2dc6b9024b26277c38ad8e8" x="1492.871094"/>
<use xlink:href="#c_5099edb83619131346ae654950954dea" x="1554.394531"/>
<use xlink:href="#c_8e0810ad13fe20a2a87a2619799b154d" x="1582.177734"/>
<use xlink:href="#c_83c92fcf7184248154f741f54a0382f5" x="1634.277344"/>
<use xlink:href="#c_d41d8cd98f00b204e9800998ecf8427e" x="1666.064453"/>
<use xlink:href="#c_42baa63129a918535c52adb20d687ea7" x="1697.851563"/>
<use xlink:href="#c_ed3f3ed3ebfbd18bcb9c012009a68ad1" x="1761.474609"/>
<use xlink:href="#c_ed3f3ed3ebfbd18bcb9c012009a68ad1" x="1825.097656"/>
<use xlink:href="#c_42baa63129a918535c52adb20d687ea7" x="1888.720703"/>
<use xlink:href="#c_d41d8cd98f00b204e9800998ecf8427e" x="1952.343750"/>
<use xlink:href="#c_6a63bda47b2f3da1cec6aadd80692cfe" x="1984.130859"/>
<use xlink:href="#c_fe791a90f5471e2ab20a5ed41a7fa451" x="2011.914063"/>
<use xlink:href="#c_0f8c41144cfbf448378cb6fd1cc8e549" x="2075.292969"/>
<use xlink:href="#c_0bce5afba2dc6b9024b26277c38ad8e8" x="2114.501953"/>
<use xlink:href="#c_e3864de5dabf2f8dd9eee74726882ec1" x="2176.025391"/>
<use xlink:href="#c_6ec8d5749226675394676a5d2a3b468b" x="2239.501953"/>
<use xlink:href="#c_01d93a582460e35a7945ca50d148ffeb" x="2280.615234"/>
<use xlink:href="#c_0f8c41144cfbf448378cb6fd1cc8e549" x="2341.894531"/>
<use xlink:href="#c_6a63bda47b2f3da1cec6aadd80692cfe" x="2381.103516"/>
<use xlink:href="#c_f05dd90d41f04bb96ef1ca503cc2044b" x="2408.886719"/>
<use xlink:href="#c_fe791a90f5471e2ab20a5ed41a7fa451" x="2470.068359"/>
<use xlink:href="#c_8e0810ad13fe20a2a87a2619799b154d" x="2533.447266"/>
<use xlink:href="#c_d41d8cd98f00b204e9800998ecf8427e" x="2585.546875"/>
<use xlink:href="#c_8c0379a31aa3b07b28207e25658c6113" x="2617.333984"/>
<use xlink:href="#c_d41d8cd98f00b204e9800998ecf8427e" x="2701.123047"/>
<use xlink:href="#c_42baa63129a918535c52adb20d687ea7" x="2732.910156"/>
<use xlink:href="#c_ed3e21196fb739f392806f09ca0594ef" x="2796.533203"/>
<use xlink:href="#c_7a2040fe3b94fcd41d0a72c84e93b115" x="2828.320312"/>
<use xlink:href="#c_7a2040fe3b94fcd41d0a72c84e93b115" x="2891.943359"/>
<use xlink:href="#c_7a2040fe3b94fcd41d0a72c84e93b115" x="2955.566406"/>
<use xlink:href="#c_ed3f3ed3ebfbd18bcb9c012009a68ad1" x="3019.189453"/>
<use xlink:href="#c_a0416418d96557a09b8c1332d34883ba" x="3082.812500"/>
<use xlink:href="#c_3dcfa38a02242cb63ec6726c6e70be7a" x="3146.435547"/>
<use xlink:href="#c_ed3f3ed3ebfbd18bcb9c012009a68ad1" x="3210.058594"/>
<use xlink:href="#c_d41d8cd98f00b204e9800998ecf8427e" x="3273.681641"/>
<use xlink:href="#c_8e0810ad13fe20a2a87a2619799b154d" x="3305.468750"/>
<use xlink:href="#c_0bce5afba2dc6b9024b26277c38ad8e8" x="3357.568359"/>
<use xlink:href="#c_d650c37394b681142a10dfc54356d478" x="3419.091797"/>
<use xlink:href="#c_ed3e21196fb739f392806f09ca0594ef" x="3474.072266"/>
</g>
</g>
</g>
</g>
</svg>
