<?xml version="1.0" standalone="no"?>
<!DOCTYPE svg PUBLIC "-//W3C//DTD SVG 1.1//EN"
  "http://www.w3.org/Graphics/SVG/1.1/DTD/svg11.dtd">
<!-- Created with matplotlib (http://matplotlib.sourceforge.net/) -->
<svg width="576pt" height="432pt" viewBox="0 0 576 432"
   xmlns="http://www.w3.org/2000/svg"
   xmlns:xlink="http://www.w3.org/1999/xlink"
   version="1.1"
   id="svg1">
<g id="figure1">
<g id="patch1">
<path style="fill: #ffffff; stroke: #ffffff; stroke-width: 1.000000; stroke-linejoin: round; stroke-linecap: square;  opacity: 1.000000"  d="M0.000000 432.000000L576.000000 432.000000L576.000000 0.000000
L0.000000 0.000000L0.000000 432.000000"/>
</g>
<g id="axes1">
<g id="patch2">
<path style="fill: #ffffff; opacity: 1.000000"  d="M72.000000 388.800000L518.400000 388.800000L518.400000 43.200000
L72.000000 43.200000L72.000000 388.800000"/>
</g>
<g id="line2d1">
<defs>
  <clipPath id="p50431ccdcb28178602d99d9270004dde">
<rect x="72.000000" y="43.200000" width="446.400000" height="345.600000"/>
  </clipPath>
</defs><path style="fill: none; stroke: #0000ff; stroke-width: 1.000000; stroke-linejoin: round; stroke-linecap: square;  opacity: 1.000000" clip-path="url(#p50431ccdcb28178602d99d9270004dde)" d="M72.000000 273.600000L72.744000 348.539328L73.488000 388.800000
L74.232000 307.297535L74.976000 371.460672L75.720000 336.782017
L76.464000 348.539328L77.952000 331.200000L78.696000 371.460672
L79.440000 388.800000L80.928000 348.539328L82.416000 348.539328
L83.160000 336.782017L83.904000 348.539328L84.648000 388.800000
L85.392000 371.460672L86.136000 388.800000L86.880000 354.121344
L88.368000 388.800000L89.856000 388.800000L90.600000 371.460672
L92.088000 371.460672L92.832000 348.539328L93.576000 371.460672
L94.320000 324.636863L95.064000 388.800000L95.808000 371.460672
L96.552000 324.636863L97.296000 313.860672L99.528000 348.539328
L100.272000 371.460672L101.016000 319.442689L101.760000 388.800000
L102.504000 331.200000L103.248000 371.460672L103.992000 388.800000
L104.736000 348.539328L105.480000 371.460672L106.224000 333.835631
L106.968000 354.121344L107.712000 388.800000L108.456000 354.121344
L109.200000 371.460672L109.944000 336.782017L110.688000 333.835631
L111.432000 354.121344L112.176000 388.800000L112.920000 354.121344
L113.664000 388.800000L114.408000 354.121344L115.152000 371.460672
L115.896000 336.782017L117.384000 371.460672L118.128000 354.121344
L118.872000 313.860672L120.360000 388.800000L121.104000 316.496304
L121.848000 331.200000L122.592000 388.800000L124.080000 333.835631
L124.824000 307.297535L126.312000 348.539328L127.056000 331.200000
L127.800000 290.939328L128.544000 284.376191L129.288000 290.939328
L130.032000 319.442689L130.776000 307.297535L131.520000 313.860672
L132.264000 331.200000L133.008000 308.278656L133.752000 295.903650
L134.496000 308.278656L135.240000 299.156976L135.984000 307.297535
L136.728000 388.800000L137.472000 289.481710L138.216000 348.539328
L138.960000 319.442689L140.448000 348.539328L141.192000 317.926142
L142.680000 308.278656L143.424000 317.926142L144.168000 308.278656
L145.656000 307.297535L146.400000 319.442689L147.144000 304.565875
L148.632000 313.860672L149.376000 336.782017L150.120000 296.521344
L150.864000 308.278656L151.608000 293.574959L152.352000 304.565875
L153.096000 284.376191L153.840000 277.665470L154.584000 307.297535
L155.328000 298.471581L156.072000 269.672494L156.816000 290.939328
L157.560000 302.103361L158.304000 271.444234L159.048000 371.460672
L159.792000 264.305203L160.536000 277.665470L161.280000 283.247487
L162.768000 290.939328L163.512000 281.472603L164.256000 284.376191
L165.000000 278.871263L166.488000 272.618880L167.232000 276.235631
L167.976000 291.444706L168.720000 273.600000L170.952000 245.056646
L172.440000 238.858884L173.184000 244.503361L173.928000 255.642978
L174.672000 200.301824L175.416000 229.411822L176.160000 209.017068
L176.904000 284.376191L177.648000 215.578313L178.392000 211.732722
L179.136000 255.642978L179.880000 210.923361L180.624000 195.625501
L181.368000 143.884626L182.112000 139.001482L182.856000 176.347018
L183.600000 181.415328L184.344000 214.167613L185.088000 156.770697
L185.832000 144.063092L186.576000 199.551899L187.320000 170.814261
L188.064000 182.440429L188.808000 157.120007L189.552000 252.440299
L190.296000 170.467414L191.040000 220.964322L191.784000 192.919067
L192.528000 248.846269L194.016000 161.281430L194.760000 215.018880
L195.504000 208.567005L196.992000 178.386080L197.736000 207.690464
L198.480000 152.162245L199.224000 199.038745L199.968000 183.231048
L200.712000 147.235967L201.456000 183.427567L202.944000 133.904258
L203.688000 139.114626L204.432000 162.985868L205.176000 226.356396
L205.920000 180.893509L206.664000 196.828285L207.408000 308.278656
L208.152000 142.139242L209.640000 162.925843L210.384000 166.530940
L211.128000 220.331751L211.872000 154.223583L212.616000 138.620800
L213.360000 221.550767L214.848000 149.027689L215.592000 260.326142
L216.336000 157.387630L217.080000 190.730849L217.824000 182.809374
L218.568000 168.786690L219.312000 229.626548L220.056000 141.198636
L220.800000 208.289772L221.544000 195.240726L222.288000 176.300926
L223.032000 230.105533L224.520000 157.291721L225.264000 145.654053
L226.008000 148.958989L226.752000 190.030194L227.496000 134.935263
L228.240000 128.222469L228.984000 173.804856L229.728000 161.811911
L230.472000 190.785568L231.216000 171.769097L232.704000 151.508061
L233.448000 165.569802L234.192000 149.893844L234.936000 203.007300
L237.168000 150.950284L237.912000 168.328644L238.656000 150.241658
L239.400000 183.950028L240.144000 148.613216L240.888000 158.517849
L241.632000 147.122554L242.376000 166.777981L243.864000 228.570890
L245.352000 156.414642L246.096000 128.755930L246.840000 195.240726
L248.328000 140.955828L249.072000 112.304041L249.816000 121.675981
L251.304000 202.058252L252.048000 199.970138L252.792000 244.115518
L254.280000 136.619986L255.024000 160.309704L256.512000 128.224715
L257.256000 153.735146L258.000000 162.613054L258.744000 110.950988
L259.488000 181.801210L260.232000 95.187183L261.720000 150.009842
L262.464000 119.264430L263.208000 132.527823L263.952000 167.718573
L264.696000 186.677681L265.440000 160.545712L266.184000 171.074474
L267.672000 125.330463L268.416000 176.178426L269.904000 112.271573
L271.392000 187.496639L272.136000 138.295049L272.880000 152.960476
L273.624000 155.484764L275.112000 150.974440L275.856000 212.612804
L276.600000 100.488752L277.344000 136.619986L278.088000 95.133075
L278.832000 159.317163L279.576000 114.264902L280.320000 149.105203
L281.064000 131.706427L281.808000 135.767493L282.552000 161.066224
L283.296000 166.530940L284.040000 218.915136L285.528000 146.024994
L286.272000 155.139841L287.016000 136.730197L287.760000 186.523217
L289.248000 156.942382L289.992000 155.482538L290.736000 135.350904
L291.480000 207.263449L292.224000 170.418833L292.968000 231.046240
L293.712000 165.549819L294.456000 207.547314L295.200000 201.730877
L295.944000 260.326142L296.688000 185.534398L297.432000 203.351931
L298.176000 181.097213L298.920000 222.832244L299.664000 175.106994
L300.408000 179.928709L301.152000 248.385568L301.896000 188.777653
L302.640000 156.525801L303.384000 177.255249L304.128000 86.862694
L304.872000 157.814052L305.616000 169.548404L306.360000 145.546079
L307.104000 160.277325L307.848000 148.986447L308.592000 154.849482
L309.336000 319.442689L310.080000 150.081493L310.824000 183.082988
L312.312000 141.024426L313.056000 179.182797L313.800000 171.472050
L314.544000 191.144184L315.288000 189.193948L316.032000 162.030764
L316.776000 191.107165L317.520000 187.337051L319.008000 146.684938
L319.752000 149.543775L320.496000 159.669958L321.240000 147.621558
L321.984000 152.854031L322.728000 192.544077L323.472000 193.686346
L324.216000 195.736533L324.960000 182.257977L325.704000 202.947845
L326.448000 176.239601L327.936000 152.569072L328.680000 155.375910
L329.424000 153.186915L330.168000 223.599954L331.656000 181.459309
L332.400000 171.476268L333.144000 207.997405L333.888000 190.922889
L334.632000 185.057901L335.376000 219.860305L336.120000 231.046240
L336.864000 170.642277L337.608000 268.017983L338.352000 216.378073
L339.096000 273.351089L339.840000 200.408899L340.584000 186.515518
L341.328000 188.634827L342.072000 201.575808L342.816000 251.184034
L343.560000 231.740513L344.304000 187.818902L345.048000 348.539328
L345.792000 219.397580L347.280000 241.836480L348.024000 220.124399
L349.512000 264.305203L350.256000 261.531935L351.000000 233.339328
L351.744000 260.326142L352.488000 232.648524L353.232000 258.896304
L353.976000 354.121344L354.720000 281.472603L355.464000 291.444706
L356.208000 283.247487L356.952000 289.481710L357.696000 299.156976
L359.184000 284.376191L360.672000 299.156976L361.416000 284.764033
L362.160000 287.226548L362.904000 304.565875L363.648000 277.665470
L364.392000 271.444234L365.136000 259.888544L365.880000 298.471581
L366.624000 293.574959L367.368000 278.564322L368.856000 313.860672
L369.600000 308.278656L370.344000 296.521344L371.088000 277.665470
L372.576000 308.278656L373.320000 304.565875L374.064000 298.471581
L374.808000 307.297535L375.552000 283.247487L376.296000 284.376191
L377.040000 299.156976L378.528000 298.471581L379.272000 296.521344
L380.016000 289.481710L380.760000 304.565875L381.504000 290.939328
L382.248000 296.521344L383.736000 287.226548L384.480000 299.156976
L385.224000 296.521344L385.968000 307.297535L386.712000 298.471581
L387.456000 281.132253L388.200000 283.247487L388.944000 308.278656
L390.432000 331.200000L391.176000 281.472603L391.920000 289.958207
L392.664000 272.142382L394.152000 290.939328L394.896000 284.376191
L395.640000 274.361948L397.128000 287.226548L397.872000 304.565875
L399.360000 278.871263L400.104000 296.521344L400.848000 324.636863
L401.592000 307.297535L402.336000 331.200000L403.080000 287.226548
L403.824000 331.200000L406.056000 291.444706L406.800000 293.574959
L407.544000 287.226548L409.032000 308.278656L409.776000 299.156976
L411.264000 299.156976L412.008000 304.565875L412.752000 298.471581
L414.240000 304.565875L414.984000 277.665470L415.728000 300.586814
L416.472000 307.297535L417.216000 287.226548L417.960000 313.860672
L419.448000 308.278656L420.192000 284.376191L422.424000 290.939328
L423.168000 299.156976L423.912000 284.376191L424.656000 307.297535
L425.400000 304.565875L426.144000 293.574959L426.888000 313.860672
L427.632000 324.636863L428.376000 289.481710L429.120000 291.444706
L429.864000 317.926142L430.608000 290.939328L432.096000 317.926142
L432.840000 289.481710L433.584000 308.278656L434.328000 299.156976
L435.072000 308.278656L436.560000 291.444706L437.304000 298.471581
L438.792000 299.156976L439.536000 307.297535L440.280000 299.156976
L441.768000 299.156976L443.256000 317.926142L444.744000 307.297535
L445.488000 284.376191L446.232000 307.297535L446.976000 298.471581
L447.720000 317.926142L448.464000 298.471581L449.208000 290.939328
L450.696000 289.481710L451.440000 331.200000L451.440000 331.200000"/>
</g>
<g id="matplotlib.axis1">
<g id="xtick1">
<g id="line2d2">
<path style="fill: none; stroke: #000000; stroke-width: 0.500000; stroke-linejoin: round; stroke-linecap: butt; stroke-dasharray: 1.000000,3.000000; stroke-dashoffset: 0.000000; opacity: 1.000000" clip-path="url(#p50431ccdcb28178602d99d9270004dde)" d="M72.000000 388.800000L72.000000 43.200000"/>
</g>
<g id="line2d3">
<defs><path id="m30e32995789d870ad79a2e54c91cf9c6" d="M0.000000 0.000000L0.000000 -4.000000"/></defs>
<g ><use style="fill: none; stroke: #000000; stroke-width: 0.500000; stroke-linejoin: round; stroke-linecap: butt;  opacity: 1.000000" xlink:href="#m30e32995789d870ad79a2e54c91cf9c6" x="72.000000" y="388.800000"/>
</g></g>
<g id="line2d4">
<defs><path id="m9281cae24120827b11d5ea8a7ad3e96b" d="M0.000000 0.000000L0.000000 4.000000"/></defs>
<g ><use style="fill: none; stroke: #000000; stroke-width: 0.500000; stroke-linejoin: round; stroke-linecap: butt;  opacity: 1.000000" xlink:href="#m9281cae24120827b11d5ea8a7ad3e96b" x="72.000000" y="43.200000"/>
</g></g>
<g id="text1">
<defs>
<path id="c_7a2040fe3b94fcd41d0a72c84e93b115" d="M31.781250 -66.406250q-7.609375 0.000000 -11.453125 7.500000q-3.828125 7.484375 -3.828125 22.531250q0.000000 14.984375 3.828125 22.484375q3.843750 7.500000 11.453125 7.500000q7.671875 0.000000 11.500000 -7.500000q3.843750 -7.500000 3.843750 -22.484375q0.000000 -15.046875 -3.843750 -22.531250q-3.828125 -7.500000 -11.500000 -7.500000M31.781250 -74.218750q12.265625 0.000000 18.734375 9.703125q6.468750 9.687500 6.468750 28.140625q0.000000 18.406250 -6.468750 28.109375q-6.468750 9.687500 -18.734375 9.687500q-12.250000 0.000000 -18.718750 -9.687500q-6.468750 -9.703125 -6.468750 -28.109375q0.000000 -18.453125 6.468750 -28.140625q6.468750 -9.703125 18.718750 -9.703125"/>
</defs>
<g style="fill: #000000; opacity: 1.000000" transform="translate(68.976562,401.706250)scale(0.120000)">
<use xlink:href="#c_7a2040fe3b94fcd41d0a72c84e93b115"/>
</g>
</g>
</g>
<g id="xtick2">
<g id="line2d5">
<path style="fill: none; stroke: #000000; stroke-width: 0.500000; stroke-linejoin: round; stroke-linecap: butt; stroke-dasharray: 1.000000,3.000000; stroke-dashoffset: 0.000000; opacity: 1.000000" clip-path="url(#p50431ccdcb28178602d99d9270004dde)" d="M146.400000 388.800000L146.400000 43.200000"/>
</g>
<g id="line2d6">
<g ><use style="fill: none; stroke: #000000; stroke-width: 0.500000; stroke-linejoin: round; stroke-linecap: butt;  opacity: 1.000000" xlink:href="#m30e32995789d870ad79a2e54c91cf9c6" x="146.400000" y="388.800000"/>
</g></g>
<g id="line2d7">
<g ><use style="fill: none; stroke: #000000; stroke-width: 0.500000; stroke-linejoin: round; stroke-linecap: butt;  opacity: 1.000000" xlink:href="#m9281cae24120827b11d5ea8a7ad3e96b" x="146.400000" y="43.200000"/>
</g></g>
<g id="text2">
<defs>
<path id="c_42baa63129a918535c52adb20d687ea7" d="M12.406250 -8.296875l16.109375 0.000000l0.000000 -55.625000l-17.531250 3.515625l0.000000 -8.984375l17.437500 -3.515625l9.859375 0.000000l0.000000 64.609375l16.109375 0.000000l0.000000 8.296875l-41.984375 0.000000z"/>
</defs>
<g style="fill: #000000; opacity: 1.000000" transform="translate(135.993750,401.706250)scale(0.120000)">
<use xlink:href="#c_42baa63129a918535c52adb20d687ea7"/>
<use xlink:href="#c_7a2040fe3b94fcd41d0a72c84e93b115" x="63.623047"/>
<use xlink:href="#c_7a2040fe3b94fcd41d0a72c84e93b115" x="127.246094"/>
</g>
</g>
</g>
<g id="xtick3">
<g id="line2d8">
<path style="fill: none; stroke: #000000; stroke-width: 0.500000; stroke-linejoin: round; stroke-linecap: butt; stroke-dasharray: 1.000000,3.000000; stroke-dashoffset: 0.000000; opacity: 1.000000" clip-path="url(#p50431ccdcb28178602d99d9270004dde)" d="M220.800000 388.800000L220.800000 43.200000"/>
</g>
<g id="line2d9">
<g ><use style="fill: none; stroke: #000000; stroke-width: 0.500000; stroke-linejoin: round; stroke-linecap: butt;  opacity: 1.000000" xlink:href="#m30e32995789d870ad79a2e54c91cf9c6" x="220.800000" y="388.800000"/>
</g></g>
<g id="line2d10">
<g ><use style="fill: none; stroke: #000000; stroke-width: 0.500000; stroke-linejoin: round; stroke-linecap: butt;  opacity: 1.000000" xlink:href="#m9281cae24120827b11d5ea8a7ad3e96b" x="220.800000" y="43.200000"/>
</g></g>
<g id="text3">
<defs>
<path id="c_ed3f3ed3ebfbd18bcb9c012009a68ad1" d="M19.187500 -8.296875l34.421875 0.000000l0.000000 8.296875l-46.281250 0.000000l0.000000 -8.296875q5.609375 -5.812500 15.296875 -15.593750q9.703125 -9.796875 12.187500 -12.640625q4.734375 -5.312500 6.609375 -9.000000q1.890625 -3.687500 1.890625 -7.250000q0.000000 -5.812500 -4.078125 -9.468750q-4.078125 -3.671875 -10.625000 -3.671875q-4.640625 0.000000 -9.796875 1.609375q-5.140625 1.609375 -11.000000 4.890625l0.000000 -9.968750q5.953125 -2.390625 11.125000 -3.609375q5.187500 -1.218750 9.484375 -1.218750q11.328125 0.000000 18.062500 5.671875q6.734375 5.656250 6.734375 15.125000q0.000000 4.500000 -1.687500 8.531250q-1.671875 4.015625 -6.125000 9.484375q-1.218750 1.421875 -7.765625 8.187500q-6.531250 6.765625 -18.453125 18.921875"/>
</defs>
<g style="fill: #000000; opacity: 1.000000" transform="translate(210.175000,401.706250)scale(0.120000)">
<use xlink:href="#c_ed3f3ed3ebfbd18bcb9c012009a68ad1"/>
<use xlink:href="#c_7a2040fe3b94fcd41d0a72c84e93b115" x="63.623047"/>
<use xlink:href="#c_7a2040fe3b94fcd41d0a72c84e93b115" x="127.246094"/>
</g>
</g>
</g>
<g id="xtick4">
<g id="line2d11">
<path style="fill: none; stroke: #000000; stroke-width: 0.500000; stroke-linejoin: round; stroke-linecap: butt; stroke-dasharray: 1.000000,3.000000; stroke-dashoffset: 0.000000; opacity: 1.000000" clip-path="url(#p50431ccdcb28178602d99d9270004dde)" d="M295.200000 388.800000L295.200000 43.200000"/>
</g>
<g id="line2d12">
<g ><use style="fill: none; stroke: #000000; stroke-width: 0.500000; stroke-linejoin: round; stroke-linecap: butt;  opacity: 1.000000" xlink:href="#m30e32995789d870ad79a2e54c91cf9c6" x="295.200000" y="388.800000"/>
</g></g>
<g id="line2d13">
<g ><use style="fill: none; stroke: #000000; stroke-width: 0.500000; stroke-linejoin: round; stroke-linecap: butt;  opacity: 1.000000" xlink:href="#m9281cae24120827b11d5ea8a7ad3e96b" x="295.200000" y="43.200000"/>
</g></g>
<g id="text4">
<defs>
<path id="c_3dcfa38a02242cb63ec6726c6e70be7a" d="M40.578125 -39.312500q7.078125 1.515625 11.046875 6.312500q3.984375 4.781250 3.984375 11.812500q0.000000 10.781250 -7.421875 16.703125q-7.421875 5.906250 -21.093750 5.906250q-4.578125 0.000000 -9.437500 -0.906250q-4.859375 -0.906250 -10.031250 -2.718750l0.000000 -9.515625q4.093750 2.390625 8.968750 3.609375q4.890625 1.218750 10.218750 1.218750q9.265625 0.000000 14.125000 -3.656250q4.859375 -3.656250 4.859375 -10.640625q0.000000 -6.453125 -4.515625 -10.078125q-4.515625 -3.640625 -12.562500 -3.640625l-8.500000 0.000000l0.000000 -8.109375l8.890625 0.000000q7.265625 0.000000 11.125000 -2.906250q3.859375 -2.906250 3.859375 -8.375000q0.000000 -5.609375 -3.984375 -8.609375q-3.968750 -3.015625 -11.390625 -3.015625q-4.062500 0.000000 -8.703125 0.890625q-4.640625 0.875000 -10.203125 2.718750l0.000000 -8.781250q5.625000 -1.562500 10.531250 -2.343750q4.906250 -0.781250 9.250000 -0.781250q11.234375 0.000000 17.765625 5.109375q6.546875 5.093750 6.546875 13.781250q0.000000 6.062500 -3.468750 10.234375q-3.468750 4.171875 -9.859375 5.781250"/>
</defs>
<g style="fill: #000000; opacity: 1.000000" transform="translate(284.598437,401.706250)scale(0.120000)">
<use xlink:href="#c_3dcfa38a02242cb63ec6726c6e70be7a"/>
<use xlink:href="#c_7a2040fe3b94fcd41d0a72c84e93b115" x="63.623047"/>
<use xlink:href="#c_7a2040fe3b94fcd41d0a72c84e93b115" x="127.246094"/>
</g>
</g>
</g>
<g id="xtick5">
<g id="line2d14">
<path style="fill: none; stroke: #000000; stroke-width: 0.500000; stroke-linejoin: round; stroke-linecap: butt; stroke-dasharray: 1.000000,3.000000; stroke-dashoffset: 0.000000; opacity: 1.000000" clip-path="url(#p50431ccdcb28178602d99d9270004dde)" d="M369.600000 388.800000L369.600000 43.200000"/>
</g>
<g id="line2d15">
<g ><use style="fill: none; stroke: #000000; stroke-width: 0.500000; stroke-linejoin: round; stroke-linecap: butt;  opacity: 1.000000" xlink:href="#m30e32995789d870ad79a2e54c91cf9c6" x="369.600000" y="388.800000"/>
</g></g>
<g id="line2d16">
<g ><use style="fill: none; stroke: #000000; stroke-width: 0.500000; stroke-linejoin: round; stroke-linecap: butt;  opacity: 1.000000" xlink:href="#m9281cae24120827b11d5ea8a7ad3e96b" x="369.600000" y="43.200000"/>
</g></g>
<g id="text5">
<defs>
<path id="c_a0416418d96557a09b8c1332d34883ba" d="M37.796875 -64.312500l-24.906250 38.921875l24.906250 0.000000zM35.203125 -72.906250l12.406250 0.000000l0.000000 47.515625l10.406250 0.000000l0.000000 8.203125l-10.406250 0.000000l0.000000 17.187500l-9.812500 0.000000l0.000000 -17.187500l-32.906250 0.000000l0.000000 -9.515625z"/>
</defs>
<g style="fill: #000000; opacity: 1.000000" transform="translate(358.834375,401.706250)scale(0.120000)">
<use xlink:href="#c_a0416418d96557a09b8c1332d34883ba"/>
<use xlink:href="#c_7a2040fe3b94fcd41d0a72c84e93b115" x="63.623047"/>
<use xlink:href="#c_7a2040fe3b94fcd41d0a72c84e93b115" x="127.246094"/>
</g>
</g>
</g>
<g id="xtick6">
<g id="line2d17">
<path style="fill: none; stroke: #000000; stroke-width: 0.500000; stroke-linejoin: round; stroke-linecap: butt; stroke-dasharray: 1.000000,3.000000; stroke-dashoffset: 0.000000; opacity: 1.000000" clip-path="url(#p50431ccdcb28178602d99d9270004dde)" d="M444.000000 388.800000L444.000000 43.200000"/>
</g>
<g id="line2d18">
<g ><use style="fill: none; stroke: #000000; stroke-width: 0.500000; stroke-linejoin: round; stroke-linecap: butt;  opacity: 1.000000" xlink:href="#m30e32995789d870ad79a2e54c91cf9c6" x="444.000000" y="388.800000"/>
</g></g>
<g id="line2d19">
<g ><use style="fill: none; stroke: #000000; stroke-width: 0.500000; stroke-linejoin: round; stroke-linecap: butt;  opacity: 1.000000" xlink:href="#m9281cae24120827b11d5ea8a7ad3e96b" x="444.000000" y="43.200000"/>
</g></g>
<g id="text6">
<defs>
<path id="c_1260a2df50f305f3db244e29828f968e" d="M10.796875 -72.906250l38.718750 0.000000l0.000000 8.312500l-29.687500 0.000000l0.000000 17.859375q2.140625 -0.734375 4.281250 -1.093750q2.156250 -0.359375 4.312500 -0.359375q12.203125 0.000000 19.328125 6.687500q7.140625 6.687500 7.140625 18.109375q0.000000 11.765625 -7.328125 18.296875q-7.328125 6.515625 -20.656250 6.515625q-4.593750 0.000000 -9.359375 -0.781250q-4.750000 -0.781250 -9.828125 -2.343750l0.000000 -9.921875q4.390625 2.390625 9.078125 3.562500q4.687500 1.171875 9.906250 1.171875q8.453125 0.000000 13.375000 -4.437500q4.937500 -4.437500 4.937500 -12.062500q0.000000 -7.609375 -4.937500 -12.046875q-4.921875 -4.453125 -13.375000 -4.453125q-3.953125 0.000000 -7.890625 0.875000q-3.921875 0.875000 -8.015625 2.734375z"/>
</defs>
<g style="fill: #000000; opacity: 1.000000" transform="translate(433.398438,401.706250)scale(0.120000)">
<use xlink:href="#c_1260a2df50f305f3db244e29828f968e"/>
<use xlink:href="#c_7a2040fe3b94fcd41d0a72c84e93b115" x="63.623047"/>
<use xlink:href="#c_7a2040fe3b94fcd41d0a72c84e93b115" x="127.246094"/>
</g>
</g>
</g>
<g id="xtick7">
<g id="line2d20">
<path style="fill: none; stroke: #000000; stroke-width: 0.500000; stroke-linejoin: round; stroke-linecap: butt; stroke-dasharray: 1.000000,3.000000; stroke-dashoffset: 0.000000; opacity: 1.000000" clip-path="url(#p50431ccdcb28178602d99d9270004dde)" d="M518.400000 388.800000L518.400000 43.200000"/>
</g>
<g id="line2d21">
<g ><use style="fill: none; stroke: #000000; stroke-width: 0.500000; stroke-linejoin: round; stroke-linecap: butt;  opacity: 1.000000" xlink:href="#m30e32995789d870ad79a2e54c91cf9c6" x="518.400000" y="388.800000"/>
</g></g>
<g id="line2d22">
<g ><use style="fill: none; stroke: #000000; stroke-width: 0.500000; stroke-linejoin: round; stroke-linecap: butt;  opacity: 1.000000" xlink:href="#m9281cae24120827b11d5ea8a7ad3e96b" x="518.400000" y="43.200000"/>
</g></g>
<g id="text7">
<defs>
<path id="c_cc8d6d580d1b10c8632f7a42cd53db8a" d="M33.015625 -40.375000q-6.640625 0.000000 -10.531250 4.546875q-3.875000 4.531250 -3.875000 12.437500q0.000000 7.859375 3.875000 12.437500q3.890625 4.562500 10.531250 4.562500q6.640625 0.000000 10.515625 -4.562500q3.875000 -4.578125 3.875000 -12.437500q0.000000 -7.906250 -3.875000 -12.437500q-3.875000 -4.546875 -10.515625 -4.546875M52.593750 -71.296875l0.000000 8.984375q-3.718750 -1.750000 -7.500000 -2.671875q-3.781250 -0.937500 -7.500000 -0.937500q-9.765625 0.000000 -14.921875 6.593750q-5.140625 6.593750 -5.875000 19.921875q2.875000 -4.250000 7.218750 -6.515625q4.359375 -2.265625 9.578125 -2.265625q10.984375 0.000000 17.359375 6.671875q6.375000 6.656250 6.375000 18.125000q0.000000 11.234375 -6.640625 18.031250q-6.640625 6.781250 -17.671875 6.781250q-12.656250 0.000000 -19.343750 -9.687500q-6.687500 -9.703125 -6.687500 -28.109375q0.000000 -17.281250 8.203125 -27.562500q8.203125 -10.281250 22.015625 -10.281250q3.718750 0.000000 7.500000 0.734375q3.781250 0.734375 7.890625 2.187500"/>
</defs>
<g style="fill: #000000; opacity: 1.000000" transform="translate(507.759375,401.706250)scale(0.120000)">
<use xlink:href="#c_cc8d6d580d1b10c8632f7a42cd53db8a"/>
<use xlink:href="#c_7a2040fe3b94fcd41d0a72c84e93b115" x="63.623047"/>
<use xlink:href="#c_7a2040fe3b94fcd41d0a72c84e93b115" x="127.246094"/>
</g>
</g>
</g>
<g id="text8">
<defs>
<path id="c_5d9b0d099c491f27a9f40b391fa98eef" d="M9.812500 -72.906250l41.890625 0.000000l0.000000 8.312500l-32.031250 0.000000l0.000000 21.484375l28.906250 0.000000l0.000000 8.296875l-28.906250 0.000000l0.000000 34.812500l-9.859375 0.000000z"/>
<path id="c_6ec8d5749226675394676a5d2a3b468b" d="M41.109375 -46.296875q-1.515625 -0.875000 -3.296875 -1.281250q-1.781250 -0.421875 -3.921875 -0.421875q-7.625000 0.000000 -11.703125 4.953125q-4.078125 4.953125 -4.078125 14.234375l0.000000 28.812500l-9.031250 0.000000l0.000000 -54.687500l9.031250 0.000000l0.000000 8.500000q2.843750 -4.984375 7.375000 -7.390625q4.546875 -2.421875 11.046875 -2.421875q0.921875 0.000000 2.046875 0.125000q1.125000 0.109375 2.484375 0.359375z"/>
<path id="c_0bce5afba2dc6b9024b26277c38ad8e8" d="M56.203125 -29.593750l0.000000 4.390625l-41.312500 0.000000q0.593750 9.281250 5.593750 14.140625q5.000000 4.859375 13.937500 4.859375q5.171875 0.000000 10.031250 -1.265625q4.859375 -1.265625 9.656250 -3.812500l0.000000 8.500000q-4.843750 2.046875 -9.921875 3.125000q-5.078125 1.078125 -10.296875 1.078125q-13.093750 0.000000 -20.734375 -7.609375q-7.640625 -7.625000 -7.640625 -20.625000q0.000000 -13.421875 7.250000 -21.296875q7.250000 -7.890625 19.562500 -7.890625q11.031250 0.000000 17.453125 7.109375q6.421875 7.093750 6.421875 19.296875M47.218750 -32.234375q-0.093750 -7.359375 -4.125000 -11.750000q-4.031250 -4.406250 -10.671875 -4.406250q-7.515625 0.000000 -12.031250 4.250000q-4.515625 4.250000 -5.203125 11.968750z"/>
<path id="c_a66ecc39892414b9ca9362e0fffdc75b" d="M14.796875 -27.296875q0.000000 9.906250 4.078125 15.546875q4.078125 5.640625 11.203125 5.640625q7.125000 0.000000 11.218750 -5.640625q4.109375 -5.640625 4.109375 -15.546875q0.000000 -9.906250 -4.109375 -15.546875q-4.093750 -5.640625 -11.218750 -5.640625q-7.125000 0.000000 -11.203125 5.640625q-4.078125 5.640625 -4.078125 15.546875M45.406250 -8.203125q-2.828125 4.875000 -7.156250 7.250000q-4.312500 2.375000 -10.375000 2.375000q-9.906250 0.000000 -16.140625 -7.906250q-6.218750 -7.921875 -6.218750 -20.812500q0.000000 -12.890625 6.218750 -20.796875q6.234375 -7.906250 16.140625 -7.906250q6.062500 0.000000 10.375000 2.375000q4.328125 2.359375 7.156250 7.234375l0.000000 -8.296875l8.984375 0.000000l0.000000 75.484375l-8.984375 0.000000z"/>
<path id="c_3b515ad41f960e225ec85275856806ca" d="M8.500000 -21.578125l0.000000 -33.109375l8.984375 0.000000l0.000000 32.765625q0.000000 7.765625 3.015625 11.656250q3.031250 3.875000 9.093750 3.875000q7.265625 0.000000 11.484375 -4.640625q4.234375 -4.640625 4.234375 -12.656250l0.000000 -31.000000l8.984375 0.000000l0.000000 54.687500l-8.984375 0.000000l0.000000 -8.406250q-3.265625 4.984375 -7.593750 7.406250q-4.312500 2.421875 -10.031250 2.421875q-9.421875 0.000000 -14.312500 -5.859375q-4.875000 -5.859375 -4.875000 -17.140625M31.109375 -56.000000z"/>
<path id="c_fe791a90f5471e2ab20a5ed41a7fa451" d="M54.890625 -33.015625l0.000000 33.015625l-8.984375 0.000000l0.000000 -32.718750q0.000000 -7.765625 -3.031250 -11.609375q-3.031250 -3.859375 -9.078125 -3.859375q-7.281250 0.000000 -11.484375 4.640625q-4.203125 4.625000 -4.203125 12.640625l0.000000 30.906250l-9.031250 0.000000l0.000000 -54.687500l9.031250 0.000000l0.000000 8.500000q3.234375 -4.937500 7.593750 -7.375000q4.375000 -2.437500 10.093750 -2.437500q9.421875 0.000000 14.250000 5.828125q4.843750 5.828125 4.843750 17.156250"/>
<path id="c_d650c37394b681142a10dfc54356d478" d="M48.781250 -52.593750l0.000000 8.406250q-3.812500 -2.109375 -7.640625 -3.156250q-3.828125 -1.046875 -7.734375 -1.046875q-8.750000 0.000000 -13.593750 5.546875q-4.828125 5.531250 -4.828125 15.546875q0.000000 10.015625 4.828125 15.562500q4.843750 5.531250 13.593750 5.531250q3.906250 0.000000 7.734375 -1.046875q3.828125 -1.046875 7.640625 -3.156250l0.000000 8.312500q-3.765625 1.750000 -7.796875 2.625000q-4.015625 0.890625 -8.562500 0.890625q-12.359375 0.000000 -19.640625 -7.765625q-7.265625 -7.765625 -7.265625 -20.953125q0.000000 -13.375000 7.343750 -21.031250q7.359375 -7.671875 20.156250 -7.671875q4.140625 0.000000 8.093750 0.859375q3.953125 0.843750 7.671875 2.546875"/>
<path id="c_3fe22c4af425ac970aec982ae9662abe" d="M32.171875 5.078125q-3.796875 9.765625 -7.421875 12.734375q-3.609375 2.984375 -9.656250 2.984375l-7.187500 0.000000l0.000000 -7.515625l5.281250 0.000000q3.703125 0.000000 5.750000 -1.765625q2.062500 -1.750000 4.546875 -8.296875l1.609375 -4.093750l-22.109375 -53.812500l9.515625 0.000000l17.093750 42.765625l17.093750 -42.765625l9.515625 0.000000z"/>
<path id="c_d41d8cd98f00b204e9800998ecf8427e" d=""/>
<path id="c_74d54c94aa871ec39e2bc6697dde6c00" d="M54.890625 -33.015625l0.000000 33.015625l-8.984375 0.000000l0.000000 -32.718750q0.000000 -7.765625 -3.031250 -11.609375q-3.031250 -3.859375 -9.078125 -3.859375q-7.281250 0.000000 -11.484375 4.640625q-4.203125 4.625000 -4.203125 12.640625l0.000000 30.906250l-9.031250 0.000000l0.000000 -75.984375l9.031250 0.000000l0.000000 29.796875q3.234375 -4.937500 7.593750 -7.375000q4.375000 -2.437500 10.093750 -2.437500q9.421875 0.000000 14.250000 5.828125q4.843750 5.828125 4.843750 17.156250"/>
<path id="c_01d93a582460e35a7945ca50d148ffeb" d="M34.281250 -27.484375q-10.890625 0.000000 -15.093750 2.484375q-4.203125 2.484375 -4.203125 8.500000q0.000000 4.781250 3.156250 7.593750q3.156250 2.796875 8.562500 2.796875q7.484375 0.000000 12.000000 -5.296875q4.515625 -5.296875 4.515625 -14.078125l0.000000 -2.000000zM52.203125 -31.203125l0.000000 31.203125l-8.984375 0.000000l0.000000 -8.296875q-3.078125 4.968750 -7.671875 7.343750q-4.593750 2.375000 -11.234375 2.375000q-8.390625 0.000000 -13.359375 -4.718750q-4.953125 -4.718750 -4.953125 -12.625000q0.000000 -9.218750 6.171875 -13.906250q6.187500 -4.687500 18.437500 -4.687500l12.609375 0.000000l0.000000 -0.890625q0.000000 -6.203125 -4.078125 -9.593750q-4.078125 -3.390625 -11.453125 -3.390625q-4.687500 0.000000 -9.140625 1.125000q-4.437500 1.125000 -8.531250 3.375000l0.000000 -8.312500q4.921875 -1.906250 9.562500 -2.843750q4.640625 -0.953125 9.031250 -0.953125q11.875000 0.000000 17.734375 6.156250q5.859375 6.140625 5.859375 18.640625"/>
<path id="c_5099edb83619131346ae654950954dea" d="M9.421875 -75.984375l8.984375 0.000000l0.000000 75.984375l-8.984375 0.000000z"/>
<path id="c_8e0810ad13fe20a2a87a2619799b154d" d="M44.281250 -53.078125l0.000000 8.500000q-3.796875 -1.953125 -7.906250 -2.921875q-4.093750 -0.984375 -8.500000 -0.984375q-6.687500 0.000000 -10.031250 2.046875q-3.343750 2.046875 -3.343750 6.156250q0.000000 3.125000 2.390625 4.906250q2.390625 1.781250 9.625000 3.390625l3.078125 0.687500q9.562500 2.046875 13.593750 5.781250q4.031250 3.734375 4.031250 10.421875q0.000000 7.625000 -6.031250 12.078125q-6.031250 4.437500 -16.578125 4.437500q-4.390625 0.000000 -9.156250 -0.859375q-4.765625 -0.859375 -10.031250 -2.562500l0.000000 -9.281250q4.984375 2.593750 9.812500 3.890625q4.828125 1.281250 9.578125 1.281250q6.343750 0.000000 9.750000 -2.171875q3.421875 -2.171875 3.421875 -6.125000q0.000000 -3.656250 -2.468750 -5.609375q-2.453125 -1.953125 -10.812500 -3.765625l-3.125000 -0.734375q-8.343750 -1.750000 -12.062500 -5.390625q-3.703125 -3.640625 -3.703125 -9.984375q0.000000 -7.718750 5.468750 -11.906250q5.468750 -4.203125 15.531250 -4.203125q4.968750 0.000000 9.359375 0.734375q4.406250 0.718750 8.109375 2.187500"/>
<path id="c_83c92fcf7184248154f741f54a0382f5" d="M11.718750 -12.406250l10.296875 0.000000l0.000000 8.406250l-8.000000 15.625000l-6.296875 0.000000l4.000000 -15.625000z"/>
<path id="c_8c0379a31aa3b07b28207e25658c6113" d="M10.593750 -45.406250l62.593750 0.000000l0.000000 8.203125l-62.593750 0.000000zM10.593750 -25.484375l62.593750 0.000000l0.000000 8.296875l-62.593750 0.000000z"/>
<path id="c_cd96f817f3cab988d24a2b49a5577fe6" d="M10.984375 -1.515625l0.000000 -8.984375q3.718750 1.765625 7.515625 2.687500q3.812500 0.921875 7.484375 0.921875q9.765625 0.000000 14.906250 -6.562500q5.156250 -6.562500 5.890625 -19.953125q-2.828125 4.203125 -7.187500 6.453125q-4.343750 2.250000 -9.609375 2.250000q-10.937500 0.000000 -17.312500 -6.609375q-6.375000 -6.625000 -6.375000 -18.109375q0.000000 -11.218750 6.640625 -18.000000q6.640625 -6.796875 17.671875 -6.796875q12.656250 0.000000 19.312500 9.703125q6.671875 9.687500 6.671875 28.140625q0.000000 17.234375 -8.187500 27.515625q-8.171875 10.281250 -21.984375 10.281250q-3.718750 0.000000 -7.531250 -0.734375q-3.796875 -0.734375 -7.906250 -2.203125M30.609375 -32.421875q6.640625 0.000000 10.515625 -4.531250q3.890625 -4.546875 3.890625 -12.468750q0.000000 -7.859375 -3.890625 -12.421875q-3.875000 -4.562500 -10.515625 -4.562500q-6.640625 0.000000 -10.515625 4.562500q-3.875000 4.562500 -3.875000 12.421875q0.000000 7.921875 3.875000 12.468750q3.875000 4.531250 10.515625 4.531250"/>
<path id="c_956f18cfdaf972f35a6c2b4aaac2532b" d="M8.203125 -72.906250l46.875000 0.000000l0.000000 4.203125l-26.468750 68.703125l-10.296875 0.000000l24.906250 -64.593750l-35.015625 0.000000z"/>
<path id="c_ed3e21196fb739f392806f09ca0594ef" d="M10.687500 -12.406250l10.312500 0.000000l0.000000 12.406250l-10.312500 0.000000z"/>
<path id="c_5e9f44da4350eed47d2641510279ca20" d="M9.812500 -72.906250l9.859375 0.000000l0.000000 29.890625l35.843750 0.000000l0.000000 -29.890625l9.859375 0.000000l0.000000 72.906250l-9.859375 0.000000l0.000000 -34.718750l-35.843750 0.000000l0.000000 34.718750l-9.859375 0.000000z"/>
<path id="c_9f267d35ece7e6f3f1d851c2e17a8dec" d="M5.515625 -54.687500l42.671875 0.000000l0.000000 8.203125l-33.781250 39.312500l33.781250 0.000000l0.000000 7.171875l-43.890625 0.000000l0.000000 -8.203125l33.796875 -39.312500l-32.578125 0.000000z"/>
<path id="c_9c6d5cbc59c6231647eb409cc6b37bb3" d="M25.390625 -72.906250l8.296875 0.000000l-25.390625 82.187500l-8.296875 0.000000z"/>
</defs>
<g style="fill: #000000; opacity: 1.000000" transform="translate(161.160937,416.003125)scale(0.120000)">
<use xlink:href="#c_5d9b0d099c491f27a9f40b391fa98eef"/>
<use xlink:href="#c_6ec8d5749226675394676a5d2a3b468b" x="50.269531"/>
<use xlink:href="#c_0bce5afba2dc6b9024b26277c38ad8e8" x="89.132812"/>
<use xlink:href="#c_a66ecc39892414b9ca9362e0fffdc75b" x="150.656250"/>
<use xlink:href="#c_3b515ad41f960e225ec85275856806ca" x="214.132812"/>
<use xlink:href="#c_0bce5afba2dc6b9024b26277c38ad8e8" x="277.511719"/>
<use xlink:href="#c_fe791a90f5471e2ab20a5ed41a7fa451" x="339.035156"/>
<use xlink:href="#c_d650c37394b681142a10dfc54356d478" x="402.414062"/>
<use xlink:href="#c_3fe22c4af425ac970aec982ae9662abe" x="457.394531"/>
<use xlink:href="#c_d41d8cd98f00b204e9800998ecf8427e" x="516.574219"/>
<use xlink:href="#c_d650c37394b681142a10dfc54356d478" x="548.361328"/>
<use xlink:href="#c_74d54c94aa871ec39e2bc6697dde6c00" x="603.341797"/>
<use xlink:href="#c_01d93a582460e35a7945ca50d148ffeb" x="666.720703"/>
<use xlink:href="#c_fe791a90f5471e2ab20a5ed41a7fa451" x="728.000000"/>
<use xlink:href="#c_fe791a90f5471e2ab20a5ed41a7fa451" x="791.378906"/>
<use xlink:href="#c_0bce5afba2dc6b9024b26277c38ad8e8" x="854.757812"/>
<use xlink:href="#c_5099edb83619131346ae654950954dea" x="916.281250"/>
<use xlink:href="#c_8e0810ad13fe20a2a87a2619799b154d" x="944.064453"/>
<use xlink:href="#c_83c92fcf7184248154f741f54a0382f5" x="996.164063"/>
<use xlink:href="#c_d41d8cd98f00b204e9800998ecf8427e" x="1027.951172"/>
<use xlink:href="#c_6ec8d5749226675394676a5d2a3b468b" x="1059.738281"/>
<use xlink:href="#c_0bce5afba2dc6b9024b26277c38ad8e8" x="1098.601562"/>
<use xlink:href="#c_8e0810ad13fe20a2a87a2619799b154d" x="1160.125000"/>
<use xlink:href="#c_d41d8cd98f00b204e9800998ecf8427e" x="1212.224609"/>
<use xlink:href="#c_8c0379a31aa3b07b28207e25658c6113" x="1244.011719"/>
<use xlink:href="#c_d41d8cd98f00b204e9800998ecf8427e" x="1327.800781"/>
<use xlink:href="#c_cd96f817f3cab988d24a2b49a5577fe6" x="1359.587891"/>
<use xlink:href="#c_956f18cfdaf972f35a6c2b4aaac2532b" x="1423.210938"/>
<use xlink:href="#c_cc8d6d580d1b10c8632f7a42cd53db8a" x="1486.833984"/>
<use xlink:href="#c_1260a2df50f305f3db244e29828f968e" x="1550.457031"/>
<use xlink:href="#c_ed3e21196fb739f392806f09ca0594ef" x="1614.080078"/>
<use xlink:href="#c_cc8d6d580d1b10c8632f7a42cd53db8a" x="1645.867188"/>
<use xlink:href="#c_ed3f3ed3ebfbd18bcb9c012009a68ad1" x="1709.490234"/>
<use xlink:href="#c_1260a2df50f305f3db244e29828f968e" x="1773.113281"/>
<use xlink:href="#c_5e9f44da4350eed47d2641510279ca20" x="1836.736328"/>
<use xlink:href="#c_9f267d35ece7e6f3f1d851c2e17a8dec" x="1911.931641"/>
<use xlink:href="#c_9c6d5cbc59c6231647eb409cc6b37bb3" x="1964.421875"/>
<use xlink:href="#c_d650c37394b681142a10dfc54356d478" x="1998.113281"/>
<use xlink:href="#c_74d54c94aa871ec39e2bc6697dde6c00" x="2053.093750"/>
<use xlink:href="#c_01d93a582460e35a7945ca50d148ffeb" x="2116.472656"/>
<use xlink:href="#c_fe791a90f5471e2ab20a5ed41a7fa451" x="2177.751953"/>
</g>
</g>
</g>
<g id="matplotlib.axis2">
<g id="ytick1">
<g id="line2d23">
<path style="fill: none; stroke: #000000; stroke-width: 0.500000; stroke-linejoin: round; stroke-linecap: butt; stroke-dasharray: 1.000000,3.000000; stroke-dashoffset: 0.000000; opacity: 1.000000" clip-path="url(#p50431ccdcb28178602d99d9270004dde)" d="M72.000000 388.800000L518.400000 388.800000"/>
</g>
<g id="line2d24">
<defs><path id="m3400efa6b1638b3fea9e19e898273957" d="M0.000000 0.000000L4.000000 0.000000"/></defs>
<g ><use style="fill: none; stroke: #000000; stroke-width: 0.500000; stroke-linejoin: round; stroke-linecap: butt;  opacity: 1.000000" xlink:href="#m3400efa6b1638b3fea9e19e898273957" x="72.000000" y="388.800000"/>
</g></g>
<g id="line2d25">
<defs><path id="m20b58b2501143cb5e0a5e8f1ef6f1643" d="M0.000000 0.000000L-4.000000 0.000000"/></defs>
<g ><use style="fill: none; stroke: #000000; stroke-width: 0.500000; stroke-linejoin: round; stroke-linecap: butt;  opacity: 1.000000" xlink:href="#m20b58b2501143cb5e0a5e8f1ef6f1643" x="518.400000" y="388.800000"/>
</g></g>
<g id="text9">
<g style="fill: #000000; opacity: 1.000000" transform="translate(61.953125,393.167188)scale(0.120000)">
<use xlink:href="#c_7a2040fe3b94fcd41d0a72c84e93b115"/>
</g>
</g>
</g>
<g id="ytick2">
<g id="line2d26">
<path style="fill: none; stroke: #000000; stroke-width: 0.500000; stroke-linejoin: round; stroke-linecap: butt; stroke-dasharray: 1.000000,3.000000; stroke-dashoffset: 0.000000; opacity: 1.000000" clip-path="url(#p50431ccdcb28178602d99d9270004dde)" d="M72.000000 331.200000L518.400000 331.200000"/>
</g>
<g id="line2d27">
<g ><use style="fill: none; stroke: #000000; stroke-width: 0.500000; stroke-linejoin: round; stroke-linecap: butt;  opacity: 1.000000" xlink:href="#m3400efa6b1638b3fea9e19e898273957" x="72.000000" y="331.200000"/>
</g></g>
<g id="line2d28">
<g ><use style="fill: none; stroke: #000000; stroke-width: 0.500000; stroke-linejoin: round; stroke-linecap: butt;  opacity: 1.000000" xlink:href="#m20b58b2501143cb5e0a5e8f1ef6f1643" x="518.400000" y="331.200000"/>
</g></g>
<g id="text10">
<g style="fill: #000000; opacity: 1.000000" transform="translate(54.828125,335.567187)scale(0.120000)">
<use xlink:href="#c_42baa63129a918535c52adb20d687ea7"/>
<use xlink:href="#c_7a2040fe3b94fcd41d0a72c84e93b115" x="63.623047"/>
</g>
</g>
</g>
<g id="ytick3">
<g id="line2d29">
<path style="fill: none; stroke: #000000; stroke-width: 0.500000; stroke-linejoin: round; stroke-linecap: butt; stroke-dasharray: 1.000000,3.000000; stroke-dashoffset: 0.000000; opacity: 1.000000" clip-path="url(#p50431ccdcb28178602d99d9270004dde)" d="M72.000000 273.600000L518.400000 273.600000"/>
</g>
<g id="line2d30">
<g ><use style="fill: none; stroke: #000000; stroke-width: 0.500000; stroke-linejoin: round; stroke-linecap: butt;  opacity: 1.000000" xlink:href="#m3400efa6b1638b3fea9e19e898273957" x="72.000000" y="273.600000"/>
</g></g>
<g id="line2d31">
<g ><use style="fill: none; stroke: #000000; stroke-width: 0.500000; stroke-linejoin: round; stroke-linecap: butt;  opacity: 1.000000" xlink:href="#m20b58b2501143cb5e0a5e8f1ef6f1643" x="518.400000" y="273.600000"/>
</g></g>
<g id="text11">
<g style="fill: #000000; opacity: 1.000000" transform="translate(54.390625,277.967188)scale(0.120000)">
<use xlink:href="#c_ed3f3ed3ebfbd18bcb9c012009a68ad1"/>
<use xlink:href="#c_7a2040fe3b94fcd41d0a72c84e93b115" x="63.623047"/>
</g>
</g>
</g>
<g id="ytick4">
<g id="line2d32">
<path style="fill: none; stroke: #000000; stroke-width: 0.500000; stroke-linejoin: round; stroke-linecap: butt; stroke-dasharray: 1.000000,3.000000; stroke-dashoffset: 0.000000; opacity: 1.000000" clip-path="url(#p50431ccdcb28178602d99d9270004dde)" d="M72.000000 216.000000L518.400000 216.000000"/>
</g>
<g id="line2d33">
<g ><use style="fill: none; stroke: #000000; stroke-width: 0.500000; stroke-linejoin: round; stroke-linecap: butt;  opacity: 1.000000" xlink:href="#m3400efa6b1638b3fea9e19e898273957" x="72.000000" y="216.000000"/>
</g></g>
<g id="line2d34">
<g ><use style="fill: none; stroke: #000000; stroke-width: 0.500000; stroke-linejoin: round; stroke-linecap: butt;  opacity: 1.000000" xlink:href="#m20b58b2501143cb5e0a5e8f1ef6f1643" x="518.400000" y="216.000000"/>
</g></g>
<g id="text12">
<g style="fill: #000000; opacity: 1.000000" transform="translate(54.437500,220.367188)scale(0.120000)">
<use xlink:href="#c_3dcfa38a02242cb63ec6726c6e70be7a"/>
<use xlink:href="#c_7a2040fe3b94fcd41d0a72c84e93b115" x="63.623047"/>
</g>
</g>
</g>
<g id="ytick5">
<g id="line2d35">
<path style="fill: none; stroke: #000000; stroke-width: 0.500000; stroke-linejoin: round; stroke-linecap: butt; stroke-dasharray: 1.000000,3.000000; stroke-dashoffset: 0.000000; opacity: 1.000000" clip-path="url(#p50431ccdcb28178602d99d9270004dde)" d="M72.000000 158.400000L518.400000 158.400000"/>
</g>
<g id="line2d36">
<g ><use style="fill: none; stroke: #000000; stroke-width: 0.500000; stroke-linejoin: round; stroke-linecap: butt;  opacity: 1.000000" xlink:href="#m3400efa6b1638b3fea9e19e898273957" x="72.000000" y="158.400000"/>
</g></g>
<g id="line2d37">
<g ><use style="fill: none; stroke: #000000; stroke-width: 0.500000; stroke-linejoin: round; stroke-linecap: butt;  opacity: 1.000000" xlink:href="#m20b58b2501143cb5e0a5e8f1ef6f1643" x="518.400000" y="158.400000"/>
</g></g>
<g id="text13">
<g style="fill: #000000; opacity: 1.000000" transform="translate(54.109375,162.767187)scale(0.120000)">
<use xlink:href="#c_a0416418d96557a09b8c1332d34883ba"/>
<use xlink:href="#c_7a2040fe3b94fcd41d0a72c84e93b115" x="63.623047"/>
</g>
</g>
</g>
<g id="ytick6">
<g id="line2d38">
<path style="fill: none; stroke: #000000; stroke-width: 0.500000; stroke-linejoin: round; stroke-linecap: butt; stroke-dasharray: 1.000000,3.000000; stroke-dashoffset: 0.000000; opacity: 1.000000" clip-path="url(#p50431ccdcb28178602d99d9270004dde)" d="M72.000000 100.800000L518.400000 100.800000"/>
</g>
<g id="line2d39">
<g ><use style="fill: none; stroke: #000000; stroke-width: 0.500000; stroke-linejoin: round; stroke-linecap: butt;  opacity: 1.000000" xlink:href="#m3400efa6b1638b3fea9e19e898273957" x="72.000000" y="100.800000"/>
</g></g>
<g id="line2d40">
<g ><use style="fill: none; stroke: #000000; stroke-width: 0.500000; stroke-linejoin: round; stroke-linecap: butt;  opacity: 1.000000" xlink:href="#m20b58b2501143cb5e0a5e8f1ef6f1643" x="518.400000" y="100.800000"/>
</g></g>
<g id="text14">
<g style="fill: #000000; opacity: 1.000000" transform="translate(54.437500,105.167187)scale(0.120000)">
<use xlink:href="#c_1260a2df50f305f3db244e29828f968e"/>
<use xlink:href="#c_7a2040fe3b94fcd41d0a72c84e93b115" x="63.623047"/>
</g>
</g>
</g>
<g id="ytick7">
<g id="line2d41">
<path style="fill: none; stroke: #000000; stroke-width: 0.500000; stroke-linejoin: round; stroke-linecap: butt; stroke-dasharray: 1.000000,3.000000; stroke-dashoffset: 0.000000; opacity: 1.000000" clip-path="url(#p50431ccdcb28178602d99d9270004dde)" d="M72.000000 43.200000L518.400000 43.200000"/>
</g>
<g id="line2d42">
<g ><use style="fill: none; stroke: #000000; stroke-width: 0.500000; stroke-linejoin: round; stroke-linecap: butt;  opacity: 1.000000" xlink:href="#m3400efa6b1638b3fea9e19e898273957" x="72.000000" y="43.200000"/>
</g></g>
<g id="line2d43">
<g ><use style="fill: none; stroke: #000000; stroke-width: 0.500000; stroke-linejoin: round; stroke-linecap: butt;  opacity: 1.000000" xlink:href="#m20b58b2501143cb5e0a5e8f1ef6f1643" x="518.400000" y="43.200000"/>
</g></g>
<g id="text15">
<g style="fill: #000000; opacity: 1.000000" transform="translate(54.359375,47.567187)scale(0.120000)">
<use xlink:href="#c_cc8d6d580d1b10c8632f7a42cd53db8a"/>
<use xlink:href="#c_7a2040fe3b94fcd41d0a72c84e93b115" x="63.623047"/>
</g>
</g>
</g>
<g id="text16">
<defs>
<path id="c_518d586bee075aa0153eaebfcb5ab11f" d="M19.671875 -64.796875l0.000000 27.390625l12.406250 0.000000q6.890625 0.000000 10.640625 -3.562500q3.765625 -3.562500 3.765625 -10.156250q0.000000 -6.546875 -3.765625 -10.109375q-3.750000 -3.562500 -10.640625 -3.562500zM9.812500 -72.906250l22.265625 0.000000q12.265625 0.000000 18.531250 5.546875q6.281250 5.546875 6.281250 16.234375q0.000000 10.796875 -6.281250 16.312500q-6.265625 5.515625 -18.531250 5.515625l-12.406250 0.000000l0.000000 29.296875l-9.859375 0.000000z"/>
<path id="c_f05dd90d41f04bb96ef1ca503cc2044b" d="M30.609375 -48.390625q-7.218750 0.000000 -11.421875 5.640625q-4.203125 5.640625 -4.203125 15.453125q0.000000 9.812500 4.171875 15.453125q4.187500 5.640625 11.453125 5.640625q7.187500 0.000000 11.375000 -5.656250q4.203125 -5.671875 4.203125 -15.437500q0.000000 -9.718750 -4.203125 -15.406250q-4.187500 -5.687500 -11.375000 -5.687500M30.609375 -56.000000q11.718750 0.000000 18.406250 7.625000q6.703125 7.609375 6.703125 21.078125q0.000000 13.421875 -6.703125 21.078125q-6.687500 7.640625 -18.406250 7.640625q-11.765625 0.000000 -18.437500 -7.640625q-6.656250 -7.656250 -6.656250 -21.078125q0.000000 -13.468750 6.656250 -21.078125q6.671875 -7.625000 18.437500 -7.625000"/>
<path id="c_57adaa7083d7229075db8bc2c5b2febe" d="M4.203125 -54.687500l8.984375 0.000000l11.234375 42.671875l11.171875 -42.671875l10.593750 0.000000l11.234375 42.671875l11.187500 -42.671875l8.984375 0.000000l-14.312500 54.687500l-10.593750 0.000000l-11.765625 -44.828125l-11.812500 44.828125l-10.609375 0.000000z"/>
<path id="c_7efa9804c2b4c09a4b614b91fdebee3d" d="M31.000000 -75.875000q-6.531250 11.218750 -9.718750 22.218750q-3.171875 10.984375 -3.171875 22.265625q0.000000 11.265625 3.203125 22.328125q3.203125 11.062500 9.687500 22.250000l-7.812500 0.000000q-7.312500 -11.484375 -10.953125 -22.562500q-3.640625 -11.078125 -3.640625 -22.015625q0.000000 -10.890625 3.609375 -21.921875q3.625000 -11.046875 10.984375 -22.562500z"/>
<path id="c_d821beae607506e87470f334d9ff47af" d="M45.406250 -46.390625l0.000000 -29.593750l8.984375 0.000000l0.000000 75.984375l-8.984375 0.000000l0.000000 -8.203125q-2.828125 4.875000 -7.156250 7.250000q-4.312500 2.375000 -10.375000 2.375000q-9.906250 0.000000 -16.140625 -7.906250q-6.218750 -7.921875 -6.218750 -20.812500q0.000000 -12.890625 6.218750 -20.796875q6.234375 -7.906250 16.140625 -7.906250q6.062500 0.000000 10.375000 2.375000q4.328125 2.359375 7.156250 7.234375M14.796875 -27.296875q0.000000 9.906250 4.078125 15.546875q4.078125 5.640625 11.203125 5.640625q7.125000 0.000000 11.218750 -5.640625q4.109375 -5.640625 4.109375 -15.546875q0.000000 -9.906250 -4.109375 -15.546875q-4.093750 -5.640625 -11.218750 -5.640625q-7.125000 0.000000 -11.203125 5.640625q-4.078125 5.640625 -4.078125 15.546875"/>
<path id="c_5cc9741494d2ad8f9764e03ae145569f" d="M48.687500 -27.296875q0.000000 -9.906250 -4.078125 -15.546875q-4.078125 -5.640625 -11.203125 -5.640625q-7.140625 0.000000 -11.218750 5.640625q-4.078125 5.640625 -4.078125 15.546875q0.000000 9.906250 4.078125 15.546875q4.078125 5.640625 11.218750 5.640625q7.125000 0.000000 11.203125 -5.640625q4.078125 -5.640625 4.078125 -15.546875M18.109375 -46.390625q2.843750 -4.875000 7.156250 -7.234375q4.328125 -2.375000 10.328125 -2.375000q9.968750 0.000000 16.187500 7.906250q6.234375 7.906250 6.234375 20.796875q0.000000 12.890625 -6.234375 20.812500q-6.218750 7.906250 -16.187500 7.906250q-6.000000 0.000000 -10.328125 -2.375000q-4.312500 -2.375000 -7.156250 -7.250000l0.000000 8.203125l-9.031250 0.000000l0.000000 -75.984375l9.031250 0.000000z"/>
<path id="c_e96974be642f6eac0427d72f9cec6c19" d="M8.015625 -75.875000l7.812500 0.000000q7.312500 11.515625 10.953125 22.562500q3.640625 11.031250 3.640625 21.921875q0.000000 10.937500 -3.640625 22.015625q-3.640625 11.078125 -10.953125 22.562500l-7.812500 0.000000q6.484375 -11.187500 9.687500 -22.250000q3.203125 -11.062500 3.203125 -22.328125q0.000000 -11.281250 -3.203125 -22.265625q-3.203125 -11.000000 -9.687500 -22.218750"/>
</defs>
<g style="fill: #000000; opacity: 1.000000" transform="translate(49.109375,263.664062)rotate(-90.0)scale(0.120000)">
<use xlink:href="#c_518d586bee075aa0153eaebfcb5ab11f"/>
<use xlink:href="#c_f05dd90d41f04bb96ef1ca503cc2044b" x="56.677734"/>
<use xlink:href="#c_57adaa7083d7229075db8bc2c5b2febe" x="117.859375"/>
<use xlink:href="#c_0bce5afba2dc6b9024b26277c38ad8e8" x="199.646484"/>
<use xlink:href="#c_6ec8d5749226675394676a5d2a3b468b" x="261.169922"/>
<use xlink:href="#c_d41d8cd98f00b204e9800998ecf8427e" x="302.283203"/>
<use xlink:href="#c_7efa9804c2b4c09a4b614b91fdebee3d" x="334.070312"/>
<use xlink:href="#c_d821beae607506e87470f334d9ff47af" x="373.083984"/>
<use xlink:href="#c_5cc9741494d2ad8f9764e03ae145569f" x="436.560547"/>
<use xlink:href="#c_d41d8cd98f00b204e9800998ecf8427e" x="500.037109"/>
<use xlink:href="#c_8e0810ad13fe20a2a87a2619799b154d" x="531.824219"/>
<use xlink:href="#c_d650c37394b681142a10dfc54356d478" x="583.923828"/>
<use xlink:href="#c_01d93a582460e35a7945ca50d148ffeb" x="638.904297"/>
<use xlink:href="#c_5099edb83619131346ae654950954dea" x="700.183594"/>
<use xlink:href="#c_0bce5afba2dc6b9024b26277c38ad8e8" x="727.966797"/>
<use xlink:href="#c_e96974be642f6eac0427d72f9cec6c19" x="789.490234"/>
</g>
</g>
</g>
<g id="patch3">
<path style="fill: none; stroke: #000000; stroke-width: 1.000000; stroke-linejoin: round; stroke-linecap: square;  opacity: 1.000000"  d="M72.000000 43.200000L518.400000 43.200000"/>
</g>
<g id="patch4">
<path style="fill: none; stroke: #000000; stroke-width: 1.000000; stroke-linejoin: round; stroke-linecap: square;  opacity: 1.000000"  d="M518.400000 388.800000L518.400000 43.200000"/>
</g>
<g id="patch5">
<path style="fill: none; stroke: #000000; stroke-width: 1.000000; stroke-linejoin: round; stroke-linecap: square;  opacity: 1.000000"  d="M72.000000 388.800000L518.400000 388.800000"/>
</g>
<g id="patch6">
<path style="fill: none; stroke: #000000; stroke-width: 1.000000; stroke-linejoin: round; stroke-linecap: square;  opacity: 1.000000"  d="M72.000000 388.800000L72.000000 43.200000"/>
</g>
<g id="text17">
<defs>
<path id="c_72234ddc5dcad8d05c893ef0371171da" d="M9.812500 -72.906250l14.703125 0.000000l18.593750 49.609375l18.703125 -49.609375l14.703125 0.000000l0.000000 72.906250l-9.625000 0.000000l0.000000 -64.015625l-18.796875 50.000000l-9.906250 0.000000l-18.796875 -50.000000l0.000000 64.015625l-9.578125 0.000000z"/>
<path id="c_6a63bda47b2f3da1cec6aadd80692cfe" d="M9.421875 -54.687500l8.984375 0.000000l0.000000 54.687500l-8.984375 0.000000zM9.421875 -75.984375l8.984375 0.000000l0.000000 11.390625l-8.984375 0.000000z"/>
<path id="c_0f8c41144cfbf448378cb6fd1cc8e549" d="M18.312500 -70.218750l0.000000 15.531250l18.500000 0.000000l0.000000 6.984375l-18.500000 0.000000l0.000000 29.687500q0.000000 6.687500 1.828125 8.593750q1.828125 1.906250 7.453125 1.906250l9.218750 0.000000l0.000000 7.515625l-9.218750 0.000000q-10.406250 0.000000 -14.359375 -3.875000q-3.953125 -3.890625 -3.953125 -14.140625l0.000000 -29.687500l-6.593750 0.000000l0.000000 -6.984375l6.593750 0.000000l0.000000 -15.531250z"/>
<path id="c_e3864de5dabf2f8dd9eee74726882ec1" d="M45.406250 -27.984375q0.000000 -9.765625 -4.031250 -15.125000q-4.015625 -5.375000 -11.296875 -5.375000q-7.218750 0.000000 -11.250000 5.375000q-4.031250 5.359375 -4.031250 15.125000q0.000000 9.718750 4.031250 15.093750q4.031250 5.375000 11.250000 5.375000q7.281250 0.000000 11.296875 -5.375000q4.031250 -5.375000 4.031250 -15.093750M54.390625 -6.781250q0.000000 13.953125 -6.203125 20.765625q-6.187500 6.812500 -18.984375 6.812500q-4.734375 0.000000 -8.937500 -0.703125q-4.203125 -0.703125 -8.156250 -2.171875l0.000000 -8.734375q3.953125 2.140625 7.812500 3.156250q3.859375 1.031250 7.859375 1.031250q8.843750 0.000000 13.234375 -4.609375q4.390625 -4.609375 4.390625 -13.937500l0.000000 -4.453125q-2.781250 4.843750 -7.125000 7.234375q-4.343750 2.390625 -10.406250 2.390625q-10.046875 0.000000 -16.203125 -7.656250q-6.156250 -7.671875 -6.156250 -20.328125q0.000000 -12.687500 6.156250 -20.343750q6.156250 -7.671875 16.203125 -7.671875q6.062500 0.000000 10.406250 2.390625q4.343750 2.390625 7.125000 7.218750l0.000000 -8.296875l8.984375 0.000000z"/>
</defs>
<g style="fill: #000000; opacity: 1.000000" transform="translate(62.246875,35.293750)scale(0.144000)">
<use xlink:href="#c_1260a2df50f305f3db244e29828f968e"/>
<use xlink:href="#c_72234ddc5dcad8d05c893ef0371171da" x="63.623047"/>
<use xlink:href="#c_5e9f44da4350eed47d2641510279ca20" x="149.902344"/>
<use xlink:href="#c_9f267d35ece7e6f3f1d851c2e17a8dec" x="225.097656"/>
<use xlink:href="#c_d41d8cd98f00b204e9800998ecf8427e" x="277.587891"/>
<use xlink:href="#c_5cc9741494d2ad8f9764e03ae145569f" x="309.375000"/>
<use xlink:href="#c_01d93a582460e35a7945ca50d148ffeb" x="372.851562"/>
<use xlink:href="#c_fe791a90f5471e2ab20a5ed41a7fa451" x="434.130859"/>
<use xlink:href="#c_d821beae607506e87470f334d9ff47af" x="497.509766"/>
<use xlink:href="#c_57adaa7083d7229075db8bc2c5b2febe" x="560.986328"/>
<use xlink:href="#c_6a63bda47b2f3da1cec6aadd80692cfe" x="642.773438"/>
<use xlink:href="#c_d821beae607506e87470f334d9ff47af" x="670.556641"/>
<use xlink:href="#c_0f8c41144cfbf448378cb6fd1cc8e549" x="734.033203"/>
<use xlink:href="#c_74d54c94aa871ec39e2bc6697dde6c00" x="773.242188"/>
<use xlink:href="#c_83c92fcf7184248154f741f54a0382f5" x="836.621094"/>
<use xlink:href="#c_d41d8cd98f00b204e9800998ecf8427e" x="868.408203"/>
<use xlink:href="#c_1260a2df50f305f3db244e29828f968e" x="900.195312"/>
<use xlink:href="#c_42baa63129a918535c52adb20d687ea7" x="963.818359"/>
<use xlink:href="#c_ed3f3ed3ebfbd18bcb9c012009a68ad1" x="1027.441406"/>
<use xlink:href="#c_d41d8cd98f00b204e9800998ecf8427e" x="1091.064453"/>
<use xlink:href="#c_d650c37394b681142a10dfc54356d478" x="1122.851563"/>
<use xlink:href="#c_74d54c94aa871ec39e2bc6697dde6c00" x="1177.832031"/>
<use xlink:href="#c_01d93a582460e35a7945ca50d148ffeb" x="1241.210938"/>
<use xlink:href="#c_fe791a90f5471e2ab20a5ed41a7fa451" x="1302.490234"/>
<use xlink:href="#c_fe791a90f5471e2ab20a5ed41a7fa451" x="1365.869141"/>
<use xlink:href="#c_0bce5afba2dc6b9024b26277c38ad8e8" x="1429.248047"/>
<use xlink:href="#c_5099edb83619131346ae654950954dea" x="1490.771484"/>
<use xlink:href="#c_8e0810ad13fe20a2a87a2619799b154d" x="1518.554688"/>
<use xlink:href="#c_83c92fcf7184248154f741f54a0382f5" x="1570.654297"/>
<use xlink:href="#c_d41d8cd98f00b204e9800998ecf8427e" x="1602.441406"/>
<use xlink:href="#c_42baa63129a918535c52adb20d687ea7" x="1634.228516"/>
<use xlink:href="#c_d41d8cd98f00b204e9800998ecf8427e" x="1697.851563"/>
<use xlink:href="#c_6a63bda47b2f3da1cec6aadd80692cfe" x="1729.638672"/>
<use xlink:href="#c_fe791a90f5471e2ab20a5ed41a7fa451" x="1757.421875"/>
<use xlink:href="#c_0f8c41144cfbf448378cb6fd1cc8e549" x="1820.800781"/>
<use xlink:href="#c_0bce5afba2dc6b9024b26277c38ad8e8" x="1860.009766"/>
<use xlink:href="#c_e3864de5dabf2f8dd9eee74726882ec1" x="1921.533203"/>
<use xlink:href="#c_6ec8d5749226675394676a5d2a3b468b" x="1985.009766"/>
<use xlink:href="#c_01d93a582460e35a7945ca50d148ffeb" x="2026.123047"/>
<use xlink:href="#c_0f8c41144cfbf448378cb6fd1cc8e549" x="2087.402344"/>
<use xlink:href="#c_6a63bda47b2f3da1cec6aadd80692cfe" x="2126.611328"/>
<use xlink:href="#c_f05dd90d41f04bb96ef1ca503cc2044b" x="2154.394531"/>
<use xlink:href="#c_fe791a90f5471e2ab20a5ed41a7fa451" x="2215.576172"/>
<use xlink:href="#c_8e0810ad13fe20a2a87a2619799b154d" x="2278.955078"/>
<use xlink:href="#c_d41d8cd98f00b204e9800998ecf8427e" x="2331.054688"/>
<use xlink:href="#c_8c0379a31aa3b07b28207e25658c6113" x="2362.841797"/>
<use xlink:href="#c_d41d8cd98f00b204e9800998ecf8427e" x="2446.630859"/>
<use xlink:href="#c_7a2040fe3b94fcd41d0a72c84e93b115" x="2478.417969"/>
<use xlink:href="#c_ed3e21196fb739f392806f09ca0594ef" x="2542.041016"/>
<use xlink:href="#c_7a2040fe3b94fcd41d0a72c84e93b115" x="2573.828125"/>
<use xlink:href="#c_7a2040fe3b94fcd41d0a72c84e93b115" x="2637.451172"/>
<use xlink:href="#c_7a2040fe3b94fcd41d0a72c84e93b115" x="2701.074219"/>
<use xlink:href="#c_42baa63129a918535c52adb20d687ea7" x="2764.697266"/>
<use xlink:href="#c_7a2040fe3b94fcd41d0a72c84e93b115" x="2828.320312"/>
<use xlink:href="#c_ed3f3ed3ebfbd18bcb9c012009a68ad1" x="2891.943359"/>
<use xlink:href="#c_a0416418d96557a09b8c1332d34883ba" x="2955.566406"/>
<use xlink:href="#c_d41d8cd98f00b204e9800998ecf8427e" x="3019.189453"/>
<use xlink:href="#c_8e0810ad13fe20a2a87a2619799b154d" x="3050.976562"/>
<use xlink:href="#c_0bce5afba2dc6b9024b26277c38ad8e8" x="3103.076172"/>
<use xlink:href="#c_d650c37394b681142a10dfc54356d478" x="3164.599609"/>
<use xlink:href="#c_ed3e21196fb739f392806f09ca0594ef" x="3219.580078"/>
</g>
</g>
</g>
</g>
</svg>
